<svg xmlns="http://www.w3.org/2000/svg" width="80" height="110" fill="none" viewBox="0 0 80 110">
    <path fill="#fff" d="M0 109.653V90.81l35.985-29.498c7.104-5.869 11.994-10.554 14.671-14.054 2.677-3.604 4.016-7.568 4.016-11.892 0-4.427-1.339-7.877-4.016-10.348-2.677-2.47-6.177-3.706-10.502-3.706-4.015 0-7.67 1.132-10.965 3.397-3.192 2.163-6.898 5.87-11.12 11.12L1.39 22.394C7.053 14.672 12.87 9.009 18.842 5.405 24.916 1.802 32.535 0 41.699 0 52.92 0 61.93 3.089 68.726 9.266c6.795 6.075 10.193 14.209 10.193 24.402 0 5.869-1.133 11.171-3.398 15.907a45.778 45.778 0 0 1-8.803 12.356c-3.603 3.5-9.009 8.03-16.216 13.59L32.896 89.112H80v20.54H0z" opacity=".3"/>
</svg>
