<svg xmlns="http://www.w3.org/2000/svg" width="81" height="110" fill="none" viewBox="0 0 81 110">
    <path fill="#fff" d="M42.12 109.851c-17.589 0-31.629-6.222-42.12-18.668L16.354 75.6C24.07 84.24 32.76 88.56 42.43 88.56c4.525 0 8.177-1.183 10.954-3.549 2.88-2.468 4.32-5.76 4.32-9.874 0-4.423-1.852-7.817-5.554-10.183-3.703-2.365-8.898-3.548-15.583-3.548H26.69l-3.702-15.12 25.765-25.92H6.326V0h72.977v17.897L51.994 43.971C71.331 47.263 81 57.446 81 74.52c0 10.389-3.549 18.874-10.646 25.457-6.994 6.583-16.405 9.874-28.234 9.874z" opacity=".3"/>
</svg>
