<svg xmlns="http://www.w3.org/2000/svg" width="23" height="17" fill="none" viewBox="0 0 23 17">
    <path fill="#fff" d="M9.932 10.373c-.45-.193-1.068-.694-1.428-1.027L.717 2.129C.357 1.796.048 1.101.29.672.484.323.85 0 1.539 0h19.927s.872.02 1.28.721c.248.425-.087 1.124-.45 1.454l-8.545 7.774s-1.649 1.354-3.819.424zm-8.346 6.626S0 16.857 0 15.455V3.995c0-.492.282-.611.63-.265L4 7.078c.347.346.474.993.283 1.447l-2.422 5.74c-.191.454-.102.506.198.118l3.385-4.361a.867.867 0 0 1 1.234-.145l1.5 1.211c.38.308 1.05.728 1.513.884 1.098.371 3.047.796 4.285-.279l2.181-1.835a.831.831 0 0 1 1.213.139l3.581 4.762c.295.393.384.342.198-.114l-2.475-6.064c-.186-.455-.055-1.105.293-1.452l3.404-3.397c.348-.346.629-.228.629.264v11.559S22.906 17 21.325 17H1.586z"/>
</svg>
