<svg xmlns="http://www.w3.org/2000/svg" width="99" height="99" fill="none" viewBox="0 0 99 99">
    <path fill="#FFC71D" d="M45.938 17.453a1.55 1.55 0 0 0-2.158 0c-.333.325-8.202 8.048-8.202 15.031 0 5.132 1.985 8.132 4.593 9.626l-1.49 13.405c-.008.076-.01.152-.008.23l1.433 38.673A4.743 4.743 0 0 0 44.859 99a4.743 4.743 0 0 0 4.754-4.582l1.432-38.674c.004-.077 0-.153-.007-.229l-1.49-13.405c2.608-1.494 4.593-4.494 4.593-9.626 0-6.983-7.87-14.706-8.203-15.031zM44.866 20.8c1.417 1.563 3.335 3.985 4.659 6.54l-1.572 2.355-1.807-2.71c-.573-.862-2-.862-2.574 0l-1.806 2.71-1.583-2.375c1.399-2.691 3.444-5.15 4.683-6.52zm3.084 34.944l-1.428 38.56a1.66 1.66 0 0 1-1.663 1.602 1.66 1.66 0 0 1-1.662-1.603l-1.428-38.559 1.397-12.571a10.261 10.261 0 0 0 3.388 0l1.396 12.571zm-3.09-15.526c-3.933 0-6.188-2.818-6.188-7.734 0-.521.063-1.053.173-1.592l1.634 2.45c.574.862 2 .862 2.574 0l1.806-2.71 1.807 2.71a1.547 1.547 0 0 0 2.574 0l1.629-2.444c.114.54.178 1.07.178 1.586 0 4.916-2.255 7.734-6.188 7.734z"/>
    <path fill="#fff" d="M23.203 52.594h-1.547c-4.265 0-7.735-3.47-7.735-7.735h3.094c.855 0 1.547-.691 1.547-1.547v-9.28c0-.856-.692-1.548-1.547-1.548H14C14.777 19.22 25.407 8.59 38.672 7.814v3.014c0 .856.69 1.547 1.546 1.547H49.5c.855 0 1.547-.691 1.547-1.547V7.813C64.31 8.59 74.94 19.22 75.716 32.484h-3.014c-.856 0-1.547.692-1.547 1.547v9.282c0 .855.691 1.546 1.547 1.546h9.281c.856 0 1.547-.691 1.547-1.547v-9.28c0-.856-.691-1.548-1.547-1.548h-3.172c-.57-10.854-7.036-20.15-16.266-24.75h11.988c.64 1.796 2.342 3.094 4.356 3.094a4.646 4.646 0 0 0 4.641-4.64 4.646 4.646 0 0 0-4.64-4.641c-2.015 0-3.716 1.298-4.357 3.094H51.046V1.547C51.047.69 50.357 0 49.5 0h-9.282c-.855 0-1.547.691-1.547 1.547V4.64H15.185c-.64-1.796-2.342-3.094-4.356-3.094a4.646 4.646 0 0 0-4.641 4.64 4.646 4.646 0 0 0 4.64 4.641c2.015 0 3.716-1.298 4.357-3.094h11.988c-9.232 4.6-15.696 13.896-16.266 24.75H7.734c-.856 0-1.547.692-1.547 1.547v9.282c0 .855.691 1.546 1.547 1.546h3.094c0 4.265-3.47 7.735-7.735 7.735H1.546c-.473 0-.92.216-1.213.586-.292.37-.4.855-.292 1.316l5.75 24.435c-2.371.206-4.245 2.178-4.245 4.6 0 1.869 1.117 3.474 2.713 4.21l-2.654 9.288c-.133.467-.039.969.252 1.357.294.387.75.614 1.236.614h18.563a1.548 1.548 0 0 0 1.488-1.97l-2.655-9.29c1.597-.734 2.714-2.34 2.714-4.209 0-2.422-1.874-4.394-4.244-4.6l5.75-24.435c.107-.46 0-.945-.292-1.316a1.552 1.552 0 0 0-1.214-.586zm57.234-10.828H74.25v-6.188h6.187v6.188zM78.891 4.64a1.547 1.547 0 1 1-.002 3.094 1.547 1.547 0 0 1 .002-3.094zM41.765 3.094h6.188V9.28h-6.188V3.094zm-30.937 4.64a1.547 1.547 0 1 1 0-3.095 1.547 1.547 0 0 1 0 3.095zM9.28 41.766v-6.188h6.187v6.188H9.281zm-4.137 54.14l2.21-7.734h10.042l2.209 7.734H5.145zM20.11 83.531c0 .854-.693 1.547-1.547 1.547H6.187a1.547 1.547 0 0 1 0-3.094H18.562c.854 0 1.547.693 1.547 1.547zm-4.319-4.64H8.959L3.499 55.68a10.79 10.79 0 0 0 7.329-3.26V64.97h3.093V52.42a10.79 10.79 0 0 0 7.33 3.259L15.79 78.89z"/>
    <path fill="#fff" d="M60.328 61.875v15.469h3.094V63.422h13.922v-3.094H61.875c-.855 0-1.547.692-1.547 1.547zM85.531 59.235L59.234 85.532l2.188 2.188 5.734-5.735h14.828c.856 0 1.547-.691 1.547-1.547V65.61l4.188-4.187-2.188-2.188zm-5.094 19.656H70.25l10.187-10.187V78.89zM99 61.875h-3.094v3.094H99v-3.094zM99 68.063h-3.094v3.093H99v-3.094zM99 74.25h-3.094v3.094H99V74.25zM92.812 68.063H89.72v3.093h3.093v-3.094zM92.812 74.25H89.72v3.094h3.093V74.25zM92.812 80.438H89.72v3.093h3.093v-3.094z"/>
</svg>
