<svg xmlns="http://www.w3.org/2000/svg" width="99" height="99" fill="none" viewBox="0 0 99 99">
    <path fill="#fff" d="M30.151 27.75c-7.35 0-13.2 5.85-13.2 13.05 0 7.2 6 13.05 13.2 13.05 7.2 0 13.2-5.85 13.2-13.05 0-7.2-5.85-13.05-13.2-13.05zm0 23.25c-5.7 0-10.2-4.5-10.2-10.05 0-5.55 4.65-10.05 10.2-10.05 5.55 0 10.2 4.5 10.2 10.05 0 5.55-4.5 10.05-10.2 10.05z"/>
    <path fill="#fff" d="M97.5 0H46.8c-.9 0-1.5.6-1.5 1.5v19.2c-4.5-2.7-9.75-4.05-15.15-4.05C13.5 16.65 0 30.15 0 46.65 0 63.45 13.65 76.8 30.15 76.8c16.65 0 30.15-13.5 30.15-30.15 0-1.35-.15-2.85-.3-4.2l8.4-6.15h29.1c.9 0 1.5-.6 1.5-1.5V1.5c0-.9-.6-1.5-1.5-1.5zM11.7 66.6c2.25-5.1 7.35-8.4 12.9-8.4h11.1c5.55 0 10.65 3.3 12.9 8.4-5.1 4.65-11.55 7.2-18.45 7.2-6.9 0-13.35-2.55-18.45-7.2zm45.6-19.95c0 6.45-2.25 12.6-6.45 17.55-3-5.55-8.7-9.15-15.15-9.15H24.6c-6.45 0-12.15 3.6-15.15 9.15C5.25 59.4 3 53.25 3 46.65c0-15 12.15-27.15 27.15-27.15 5.4 0 10.65 1.65 15.15 4.65v10.5c0 .9.6 1.5 1.5 1.5h5.25l-3.9 11.7c-.15.6 0 1.35.6 1.65.45.45 1.2.45 1.8 0l6.75-5.1v2.25zM96 33.3H67.95c-.3 0-.6.15-.9.3L52.5 44.4l3-9.15c.15-.45.15-.9-.15-1.35-.3-.45-.75-.6-1.2-.6H48.3V3H96v30.3z"/>
    <path fill="#FFC71D" d="M52.951 11.1h38.55c.9 0 1.5-.6 1.5-1.5s-.6-1.5-1.5-1.5h-38.55c-.9 0-1.5.6-1.5 1.5s.6 1.5 1.5 1.5zM52.951 19.35h38.55c.9 0 1.5-.6 1.5-1.5s-.6-1.5-1.5-1.5h-38.55c-.9 0-1.5.6-1.5 1.5 0 .75.6 1.5 1.5 1.5zM52.951 27.6h38.55c.9 0 1.5-.6 1.5-1.5s-.6-1.5-1.5-1.5h-38.55c-.9 0-1.5.6-1.5 1.5 0 .75.6 1.5 1.5 1.5z"/>
    <path fill="#fff" d="M99 63c0-.9-.6-1.5-1.5-1.5h-39c-.9 0-1.5.6-1.5 1.5v34.5c0 .9.6 1.5 1.5 1.5h39c.9 0 1.5-.6 1.5-1.5V63zm-3 7.05H84.75V64.5H96v5.55zM81.75 64.5v9.9l-2.7-3c-.3-.3-.75-.45-1.2-.45-.45 0-.9.15-1.2.45l-2.7 3v-9.9h7.8zm-10.5 0v5.7H60v-5.7h11.25zM60 96V73.05h11.25v5.25c0 .6.45 1.2.9 1.35.6.15 1.2 0 1.65-.45l4.2-4.65 4.2 4.65c.45.45 1.05.6 1.65.45.6-.15.9-.75.9-1.35v-5.25H96V96H60z"/>
    <path fill="#FFC71D" d="M50.7 83.4H9.75c-.9 0-1.5.6-1.5 1.5s.6 1.5 1.5 1.5H50.7c.9 0 1.5-.6 1.5-1.5s-.75-1.5-1.5-1.5zM50.7 92.85H9.75c-.9 0-1.5.6-1.5 1.5s.6 1.5 1.5 1.5H50.7c.9 0 1.5-.6 1.5-1.5s-.75-1.5-1.5-1.5z"/>
</svg>
