<svg xmlns="http://www.w3.org/2000/svg" width="99" height="99" fill="none" viewBox="0 0 99 99">
    <path fill="#fff" d="M91.016 35.129h-4.79v-4.79c0-2.641-2.15-4.79-4.79-4.79h-4.79v-7.985c0-2.64-2.15-4.79-4.791-4.79h-4.79V0H19.16v12.774h-4.79a4.796 4.796 0 0 0-4.79 4.79v7.984H4.79A4.796 4.796 0 0 0 0 30.338v47.904c0 2.641 2.15 4.79 4.79 4.79h15.958L18.974 99h48.277l-1.774-15.968h25.539c4.402 0 7.984-3.581 7.984-7.984V43.113c0-4.402-3.582-7.984-7.984-7.984zM67.064 15.968h4.79c.882 0 1.598.717 1.598 1.596v7.984h-6.388v-9.58zM22.354 3.194h41.517v28.742H22.355V3.194zm-9.58 14.37c0-.88.716-1.596 1.597-1.596h4.79v9.58h-6.387v-7.983zm9.768 78.242l2.839-25.548h35.463l2.838 25.548h-41.14zm41.163-28.742H22.52l-.71 6.388h-5.843V63.87h54.29v9.58h-5.844l-.71-6.386zm19.327-28.741h-6.387v3.193h6.387v36.726c0 .881-.715 1.597-1.596 1.597H65.121l-.354-3.194h8.684V60.677H12.774v15.968h8.684l-.355 3.194H4.79a1.597 1.597 0 0 1-1.596-1.597V41.516H9.58v-3.193H3.194v-7.984c0-.88.715-1.597 1.596-1.597h14.371v3.194h-3.193v3.193h54.29v-3.193h-3.194v-3.194h14.372c.88 0 1.596.717 1.596 1.597v7.984zm12.774 36.725c0 2.641-2.149 4.79-4.79 4.79h-5.084a4.737 4.737 0 0 0 .294-1.596V63.87h9.58v11.177zm0-14.37h-9.58V38.322h4.79c2.641 0 4.79 2.149 4.79 4.79v17.564z"/>
    <path fill="#FFC71D" d="M73.45 38.323H12.774v3.194h60.678v-3.194zM31.934 44.71v12.774h19.16V44.71h-19.16zM47.9 54.29H35.127v-6.386h12.774v6.387zM6.389 44.71v12.774H25.55V44.71H6.389zm15.967 9.58H9.582v-6.386h12.774v6.387zM25.549 6.387v15.967h15.968V6.387H25.549zM38.323 19.16h-9.58V9.58h9.58v9.58zM44.709 6.387v15.967h15.968V6.387H44.709zM57.483 19.16h-9.58V9.58h9.58v9.58zM59.082 25.549H27.146v3.193h31.936V25.55z"/>
    <path fill="#fff" d="M57.484 89.42H28.742v3.193h28.742V89.42zM57.484 83.033H28.742v3.194h28.742v-3.194zM55.888 76.645H30.34v3.194h25.548v-3.193zM92.613 41.516H89.42v3.193h3.193v-3.193zM92.613 47.903H89.42v3.194h3.193v-3.194zM92.613 54.29H89.42v3.194h3.193V54.29z"/>
    <path fill="#FFC71D" d="M79.84 47.903h-3.193v3.194h3.193v-3.194zM73.451 47.903h-3.193v3.194h3.193v-3.194zM67.065 47.903H63.87v3.194h3.194v-3.194zM60.676 47.903h-3.194v3.194h3.194v-3.194zM60.676 54.29h-3.194v3.194h3.194V54.29zM67.065 54.29H63.87v3.194h3.194V54.29zM73.451 54.29h-3.193v3.194h3.193V54.29zM79.84 54.29h-3.193v3.194h3.193V54.29z"/>
</svg>
