<svg xmlns="http://www.w3.org/2000/svg" width="22" height="22" fill="none" viewBox="0 0 22 22">
    <rect width="22" height="22" fill="#fff" rx="2"/>
    <path fill="#4C4C4C" d="M16.6 4H5.4C4.63 4 4 4.63 4 5.4v11.2c0 .77.63 1.4 1.4 1.4h11.2c.77 0 1.4-.63 1.4-1.4V5.4c0-.77-.63-1.4-1.4-1.4zM11 8.2c1.54 0 2.8 1.26 2.8 2.8 0 1.54-1.26 2.8-2.8 2.8-1.54 0-2.8-1.26-2.8-2.8 0-1.54 1.26-2.8 2.8-2.8zm-5.25 8.4c-.21 0-.35-.14-.35-.35V10.3h1.47c-.07.21-.07.49-.07.7 0 2.31 1.89 4.2 4.2 4.2 2.31 0 4.2-1.89 4.2-4.2 0-.21 0-.49-.07-.7h1.47v5.95c0 .21-.14.35-.35.35H5.75zM16.6 7.15c0 .21-.14.35-.35.35h-1.4c-.21 0-.35-.14-.35-.35v-1.4c0-.21.14-.35.35-.35h1.4c.21 0 .35.14.35.35v1.4z"/>
</svg>
