<svg xmlns="http://www.w3.org/2000/svg" width="227" height="36" fill="none" viewBox="0 0 227 36">
    <path fill="#2B2A29" d="M29.239 4.88s.315-.554.807-1.187c.476-.607.933-1.18 1.664-1.688a5.57 5.57 0 0 1 1.484-.73c.666-.21 1.569-.493 2.36-.093.594.297.87.854 1.01 1.14 1.11 2.231-.042 6.91-.2 7.533a9.949 9.949 0 0 1-2.796-.887c-2.435-1.2-3.758-3.121-4.329-4.088z"/>
    <path fill="#FEFEFE" d="M27.23 4.203a9.932 9.932 0 0 1 1.922-2.04c.322-.258 1.198-.921 2.314-1.348.056-.02 1.067-.397 1.943-.367.023 0 .04.004.056.004.719.036 1.24.243 1.388.306.529.224.906.517 1.14.727a5.483 5.483 0 0 0-.821-.053c-.043 0-.604.01-1.192.16-1.48.377-2.546 1.444-2.615 1.514-.673.687-1.123 1.514-1.36 1.954l-.078.146-2.698-1.003z"/>
    <path stroke="#2B2A29" stroke-width=".89345536" d="M27.23 4.203a9.932 9.932 0 0 1 1.922-2.04c.322-.258 1.198-.921 2.314-1.348.056-.02 1.067-.397 1.943-.367.023 0 .04.004.056.004.719.036 1.24.243 1.388.306.529.224.906.517 1.14.727a5.483 5.483 0 0 0-.821-.053c-.043 0-.604.01-1.192.16-1.48.377-2.546 1.444-2.615 1.514-.673.687-1.123 1.514-1.36 1.954l-.078.146-2.698-1.003z"/>
    <path fill="#1D1D1D" d="M21.963 25.604v-4.312c.758-.003 1.52.11 2.248.324.22.067.45.147.607.317.141.15.214.356.237.563.055.527-.194 1.04-.512 1.46a4.408 4.408 0 0 1-2.58 1.648z"/>
    <path fill="#2B2A29" d="M14.713 4.88s-.318-.554-.81-1.187c-.476-.607-.933-1.18-1.661-1.688a5.57 5.57 0 0 0-1.484-.73c-.666-.21-1.572-.493-2.363-.093-.59.297-.866.854-1.01 1.14-1.11 2.231.045 6.91.203 7.533a9.899 9.899 0 0 0 2.793-.887c2.435-1.2 3.761-3.121 4.332-4.088z"/>
    <path fill="#FEFEFE" d="M16.718 4.203a9.844 9.844 0 0 0-1.92-2.04c-.325-.258-1.198-.921-2.314-1.348-.06-.02-1.067-.397-1.946-.367-.02 0-.04.004-.053.004a4.17 4.17 0 0 0-1.392.306 4.09 4.09 0 0 0-1.135.727c.21-.03.489-.056.82-.053.04 0 .604.01 1.188.16 1.48.377 2.55 1.444 2.62 1.514.672.687 1.122 1.514 1.358 1.954.046.09.076.14.08.146l2.694-1.003z"/>
    <path stroke="#2B2A29" stroke-width=".89345536" d="M16.718 4.203a9.844 9.844 0 0 0-1.92-2.04c-.325-.258-1.198-.921-2.314-1.348-.06-.02-1.067-.397-1.946-.367-.02 0-.04.004-.053.004a4.17 4.17 0 0 0-1.392.306 4.09 4.09 0 0 0-1.135.727c.21-.03.489-.056.82-.053.04 0 .604.01 1.188.16 1.48.377 2.55 1.444 2.62 1.514.672.687 1.122 1.514 1.358 1.954.046.09.076.14.08.146l2.694-1.003z"/>
    <path fill="#FEFEFE" d="M21.985 35.348l-.01-.004-.013.004v-.007a36.8 36.8 0 0 1-9.098-4.468c.016.426.033.853.046 1.28a15.198 15.198 0 0 1-5.12-3.608c-.063.337-.122.67-.18 1.004a51.573 51.573 0 0 0-3.28-2.371 50.88 50.88 0 0 0-3.685-2.237 92.212 92.212 0 0 1 2.786-3.882H2.128a16.27 16.27 0 0 1 3.24-4.911 14.166 14.166 0 0 1-1.487-.11 46.603 46.603 0 0 1 2.56-3.558l-1.618-.504c.84-.61 2.07-1.537 3.505-2.738 2.931-2.45 2.816-2.997 4.493-4.018 2.498-1.517 5.088-1.837 6.38-1.984 1.136-.13 2.095-.13 2.774-.1.676-.03 1.638-.03 2.774.1 1.29.147 3.88.467 6.38 1.984 1.674 1.02 1.562 1.568 4.493 4.018a66.531 66.531 0 0 0 3.502 2.738l-1.614.504a46.73 46.73 0 0 1 2.56 3.558c-.414.053-.916.096-1.49.11a16.296 16.296 0 0 1 3.243 4.912h-1.304c.447.59.896 1.2 1.346 1.827.502.693.981 1.377 1.44 2.054a51.565 51.565 0 0 0-6.965 4.608c-.058-.334-.12-.667-.18-1.004a15.21 15.21 0 0 1-5.123 3.608c.017-.427.033-.854.046-1.28a36.696 36.696 0 0 1-9.098 4.468v.007zm11.957-19.88c-3.473-1.124-5.75-3.355-6.948-4.526-2.797-2.74-4.257-5.742-5.019-7.776-.761 2.034-2.222 5.035-5.021 7.776-1.195 1.17-3.473 3.402-6.945 4.525.279 1.467.856 3.812 1.959 6.232a13.578 13.578 0 0 0 2.156 3.332c1.159 1.307 2.075 1.814 3.414 2.83a29.46 29.46 0 0 1 4.437 4.185 29.307 29.307 0 0 1 4.438-4.184c1.336-1.017 2.255-1.524 3.413-2.831a13.578 13.578 0 0 0 2.156-3.332c1.103-2.42 1.678-4.765 1.96-6.232z"/>
    <path stroke="#2B2A29" stroke-width=".89345536" d="M21.985 35.348l-.01-.004-.013.004v-.007a36.8 36.8 0 0 1-9.098-4.468c.016.426.033.853.046 1.28a15.198 15.198 0 0 1-5.12-3.608c-.063.337-.122.67-.18 1.004a51.573 51.573 0 0 0-3.28-2.371 50.88 50.88 0 0 0-3.685-2.237 92.212 92.212 0 0 1 2.786-3.882H2.128a16.27 16.27 0 0 1 3.24-4.911 14.14 14.14 0 0 1-1.487-.11 46.603 46.603 0 0 1 2.56-3.558l-1.618-.504c.84-.61 2.07-1.537 3.505-2.738 2.931-2.45 2.816-2.997 4.493-4.018 2.498-1.517 5.088-1.837 6.38-1.984 1.136-.13 2.095-.13 2.774-.1.676-.03 1.638-.03 2.774.1 1.29.147 3.88.467 6.38 1.984 1.674 1.02 1.562 1.568 4.493 4.018a66.531 66.531 0 0 0 3.502 2.738l-1.614.504a46.73 46.73 0 0 1 2.56 3.558c-.414.053-.916.096-1.49.11a16.296 16.296 0 0 1 3.243 4.912h-1.304c.447.59.896 1.2 1.346 1.827.502.693.981 1.377 1.44 2.054a51.565 51.565 0 0 0-6.965 4.608c-.058-.334-.12-.667-.18-1.004a15.21 15.21 0 0 1-5.123 3.608c.017-.427.033-.854.046-1.28a36.696 36.696 0 0 1-9.098 4.468v.007zm11.957-19.88c-3.473-1.124-5.75-3.355-6.948-4.526-2.797-2.74-4.257-5.742-5.019-7.776-.761 2.034-2.222 5.035-5.021 7.776-1.195 1.17-3.473 3.402-6.945 4.525.279 1.467.856 3.812 1.959 6.232a13.576 13.576 0 0 0 2.156 3.332c1.159 1.307 2.075 1.814 3.414 2.83a29.46 29.46 0 0 1 4.437 4.185 29.307 29.307 0 0 1 4.438-4.184c1.336-1.017 2.255-1.524 3.413-2.831a13.576 13.576 0 0 0 2.156-3.332c1.103-2.42 1.678-4.765 1.96-6.232z"/>
    <path fill="#2B2A29" d="M21.985 33.223l-.01-.023-.013.023v-.047a7.33 7.33 0 0 0-1.999-2.587 7.198 7.198 0 0 0-1.851-1.097v1.37a42.762 42.762 0 0 1-4.956-3.014l-.098 1.167a9.474 9.474 0 0 1-4.822-4.385c-.2.287-.404.574-.604.857-.354-.563-1.408-2.394-1.112-4.828A7.24 7.24 0 0 1 7.698 17.5c-.38-.157-.765-.313-1.146-.47.555-.197 1.395-.53 2.36-1.06.81-.447 1.29-.804 2.527-1.678 1.888-1.334 2.833-2 3.066-2.087 1.326-.494 3.709-.707 4.92.73 1.093 1.294.807 3.428.568 4.282a4.742 4.742 0 0 0-.03.1c-.243.81-.706 1.553-1.303 2.51-.912 1.46-1.326 1.691-1.48 2.465-.266 1.323.558 2.507.807 2.874 1.303 1.907 3.548 2.17 3.988 2.214.44-.043 2.685-.307 3.988-2.214.25-.367 1.073-1.55.807-2.874-.154-.774-.57-1.004-1.483-2.465-.594-.957-1.06-1.7-1.303-2.51a5.439 5.439 0 0 0-.03-.1c-.24-.854-.522-2.988.571-4.282 1.208-1.437 3.591-1.224 4.92-.73.233.086 1.175.753 3.066 2.087 1.237.874 1.716 1.23 2.527 1.677.965.53 1.802.864 2.357 1.06-.381.158-.762.314-1.146.471a7.234 7.234 0 0 1 1.182 3.158c.292 2.434-.759 4.265-1.113 4.828-.204-.283-.404-.57-.607-.857a9.514 9.514 0 0 1-4.818 4.385c-.033-.39-.07-.777-.102-1.167-.532.377-1.096.757-1.684 1.13a44.046 44.046 0 0 1-3.269 1.884v-1.37a7.207 7.207 0 0 0-1.854 1.097 7.41 7.41 0 0 0-2 2.587v.047z"/>
    <path fill="#FEFEFE" d="M19.513 18.208c-.57.86-1.086 1.49-1.46 1.917-.4.457-.585.7-.775.9-.85.897-1.3 1.09-1.46 1.724-.224.894.242 1.694.82 2.334 1.457 1.618 3.272 2.131 5.324 2.431v.004h.023v-.004c2.054-.3 3.87-.813 5.327-2.43.574-.64 1.04-1.441.817-2.335-.158-.633-.607-.827-1.46-1.724-.191-.2-.375-.443-.775-.9a18.818 18.818 0 0 1-1.46-1.917v.006c-.139-.256-.32-.566-.45-1.09a5.517 5.517 0 0 1-.145-1.224c-.01-.36-.023-.86.112-1.494.036-.173.183-.82.594-1.573 0 0 .21-.384.43-.674.853-1.14 3.21-1.387 3.502-1.414L24.253 3.19a26.239 26.239 0 0 0-2.278-.073 26.745 26.745 0 0 0-2.281.073c-1.408 2.518-2.816 5.035-4.224 7.556.295.027 2.652.274 3.505 1.414.217.29.427.674.427.674.413.753.558 1.4.594 1.573.138.634.124 1.134.115 1.494a5.55 5.55 0 0 1-.148 1.224c-.131.524-.309.834-.447 1.09l-.003-.006zm3.83 3.264l-1.368 4.108-1.372-4.108 1.372-.183 1.368.183z"/>
    <path fill="#1D1D1D" d="M21.985 25.604v-4.312a7.88 7.88 0 0 0-2.245.324c-.223.067-.45.147-.61.317a.975.975 0 0 0-.237.563c-.055.527.197 1.04.512 1.46a4.428 4.428 0 0 0 2.58 1.648z"/>
    <path fill="#1C1B17" d="M21.975 25.604a4.435 4.435 0 0 1-2.57-1.647c-.315-.42-.567-.934-.512-1.46a.975.975 0 0 1 .237-.564c.16-.17.387-.25.61-.317a7.864 7.864 0 0 1 4.47 0c.22.067.45.147.608.317.14.15.213.356.236.563.056.527-.194 1.04-.512 1.46a4.417 4.417 0 0 1-2.567 1.648z"/>
    <path fill="#434242" d="M21.976 21.499a7.298 7.298 0 0 0-1.254.097c-.184.033-.331.06-.617.143-.184.057-.384.11-.555.207a.647.647 0 0 0-.302.333.475.475 0 0 0-.023.257c.053.267.381.407.555.477.716.297 1.848.303 2.196.3.348.003 1.48-.003 2.196-.3.174-.07.499-.21.554-.477a.475.475 0 0 0-.023-.257.64.64 0 0 0-.305-.333c-.167-.097-.37-.15-.555-.207-.285-.083-.433-.11-.613-.143a7.328 7.328 0 0 0-1.254-.097zM24.11 13.846a7.804 7.804 0 0 1 .649-1.71 7.658 7.658 0 0 1 1.214-1.71c1.087-1.141 2.33-1.651 3.066-1.885-.089.367-.177.73-.27 1.097 1.694-.253 3.385-.503 5.078-.757-.246.4-.495.8-.742 1.197 1.159.55 2.314 1.097 3.473 1.644-1.569.03-2.898.087-3.91.137-3.95.203-5.165.453-6.334.89a12.53 12.53 0 0 0-2.225 1.097z"/>
    <path fill="#1E1E1E" d="M27.623 14.89c.154 0 .377.01.63.067.285.063.469.153.755.293.111.054.528.26 1.056.637.214.154.381.287.493.38a8.614 8.614 0 0 1-.493.38 7.383 7.383 0 0 1-1.056.637c-.286.14-.47.23-.755.294a2.874 2.874 0 0 1-.63.066 1.367 1.367 0 0 1-1.356-1.377c0-.76.607-1.377 1.356-1.377z"/>
    <path fill="#E8E8E8" d="M26.79 16.267a.42.42 0 0 1 .418-.423c.23 0 .413.19.413.423a.418.418 0 0 1-.413.424.42.42 0 0 1-.417-.424z"/>
    <path fill="#434242" d="M19.84 13.846a7.839 7.839 0 0 0-.653-1.71 7.441 7.441 0 0 0-1.214-1.71c-1.083-1.141-2.327-1.651-3.066-1.885.092.367.18.73.27 1.097-1.69-.253-3.384-.503-5.075-.757l.739 1.197c-1.156.55-2.314 1.097-3.47 1.644 1.57.03 2.899.087 3.91.137 3.948.203 5.166.453 6.334.89.978.367 1.733.79 2.225 1.097z"/>
    <path fill="#1E1E1E" d="M16.324 14.89c-.154 0-.374.01-.63.067-.283.063-.466.153-.755.293-.112.054-.525.26-1.054.637a7.812 7.812 0 0 0-.495.38c.111.094.279.227.495.38.529.377.942.584 1.054.637.289.14.472.23.755.294.256.056.476.066.63.066.748 0 1.355-.616 1.355-1.377 0-.76-.607-1.377-1.355-1.377z"/>
    <path fill="#E8E8E8" d="M17.162 16.267a.42.42 0 0 0-.417-.423.42.42 0 0 0-.417.423.42.42 0 0 0 .417.424.42.42 0 0 0 .417-.424z"/>
    <g fill="#fff">
        <path d="M66.663 24.192c0 .338.194.557.582.657v.301h-3.78v-.3a.902.902 0 0 0 .419-.226c.096-.1.145-.244.145-.432V13.577c0-.188-.049-.332-.145-.432-.085-.1-.225-.175-.418-.225v-.3h7.576c1.562 0 2.78.256 3.652.77.884.513 1.326 1.527 1.326 3.043 0 1.027-.297 1.828-.89 2.405-.582.563-1.381.926-2.399 1.09l2.362 3.475c.351.538.624.914.818 1.127.194.213.46.32.8.32v.3h-4.38v-.3c.098-.013.194-.038.291-.076.097-.037.146-.119.146-.244s-.06-.276-.182-.45a10.64 10.64 0 0 0-.236-.358l-2.435-3.682h-3.252v4.152zm4.106-6.219c.8 0 1.436-.094 1.908-.281.472-.2.708-.652.708-1.353 0-.714-.236-1.165-.708-1.353-.46-.2-1.096-.3-1.908-.3h-4.106v3.287h4.106zM81.863 22.576l-.473.94c-.157.338-.236.62-.236.845a.47.47 0 0 0 .163.357c.122.088.255.15.4.188v.244h-3.652v-.244c.23-.038.4-.12.51-.244.12-.138.247-.339.38-.602l3.634-7.59c.049-.1.091-.206.127-.319.049-.113.073-.25.073-.413 0-.15-.048-.27-.145-.357a.9.9 0 0 0-.364-.244v-.245h3.87v.245a.928.928 0 0 0-.345.225.475.475 0 0 0-.145.338c0 .15.012.282.036.395.036.112.097.25.182.413l3.76 7.365c.122.237.243.457.364.657.133.188.357.313.672.376v.244h-4.052v-.244c.134-.025.26-.07.382-.132.121-.075.182-.213.182-.413 0-.276-.091-.57-.273-.883l-.49-.902h-4.56zm2.216-4.734l-1.544 3.306h3.16l-1.616-3.306zM103.35 23.741l-.2.15c-.121-.1-.236-.15-.345-.15-.763.426-1.563.808-2.399 1.146a6.677 6.677 0 0 1-2.47.488c-1.696 0-3.125-.457-4.288-1.371-1.15-.927-1.726-2.254-1.726-3.983 0-1.703.575-3.018 1.726-3.945 1.163-.94 2.592-1.41 4.288-1.41.896 0 1.744.17 2.543.508l2.29 1.127a.59.59 0 0 0 .38-.15l.2.15-1.49 2.255-.199-.15.036-.245c0-.413-.448-.776-1.344-1.09-.896-.313-1.671-.47-2.326-.47-.968 0-1.822.327-2.561.978-.727.639-1.09 1.453-1.09 2.442 0 .99.363 1.81 1.09 2.461.726.639 1.58.958 2.561.958.957 0 1.72-.15 2.29-.45.569-.301.938-.514 1.108-.64.182-.124.272-.275.272-.45l-.036-.263.2-.15 1.49 2.254zM116.053 23.741l-.2.15c-.121-.1-.236-.15-.345-.15-.763.426-1.562.808-2.398 1.146a6.676 6.676 0 0 1-2.471.488c-1.696 0-3.125-.457-4.288-1.371-1.15-.927-1.726-2.254-1.726-3.983 0-1.703.576-3.018 1.726-3.945 1.163-.94 2.592-1.41 4.288-1.41.896 0 1.744.17 2.544.508l2.289 1.127c.133 0 .26-.05.381-.15l.2.15-1.49 2.255-.2-.15.037-.245c0-.413-.448-.776-1.345-1.09-.896-.313-1.671-.47-2.325-.47-.97 0-1.823.327-2.562.978-.727.639-1.09 1.453-1.09 2.442 0 .99.363 1.81 1.09 2.461.727.639 1.58.958 2.562.958.957 0 1.72-.15 2.289-.45.57-.301.939-.514 1.108-.64.182-.124.273-.275.273-.45l-.037-.263.2-.15 1.49 2.254zM123.16 25.375c-1.647 0-3.033-.475-4.16-1.427-1.114-.952-1.671-2.261-1.671-3.927s.557-2.974 1.671-3.926c1.127-.952 2.513-1.428 4.16-1.428 1.636 0 3.01.476 4.125 1.428 1.126.952 1.69 2.26 1.69 3.926 0 1.653-.564 2.962-1.69 3.927-1.127.952-2.501 1.427-4.124 1.427zm0-8.773c-.968 0-1.774.32-2.416.958-.642.639-.962 1.46-.962 2.461 0 1.002.32 1.823.962 2.461.642.639 1.448.958 2.417.958.957 0 1.756-.319 2.398-.958.654-.651.981-1.471.981-2.46 0-1.003-.321-1.823-.963-2.462-.642-.639-1.447-.958-2.416-.958zM136.077 25.375c-1.647 0-3.034-.475-4.16-1.427-1.115-.952-1.672-2.261-1.672-3.927s.557-2.974 1.672-3.926c1.126-.952 2.513-1.428 4.16-1.428 1.635 0 3.01.476 4.124 1.428 1.127.952 1.69 2.26 1.69 3.926 0 1.653-.563 2.962-1.69 3.927-1.126.952-2.501 1.427-4.124 1.427zm0-8.773c-.969 0-1.774.32-2.416.958-.642.639-.963 1.46-.963 2.461 0 1.002.32 1.823.963 2.461.642.639 1.447.958 2.416.958.957 0 1.756-.319 2.398-.958.654-.651.981-1.471.981-2.46 0-1.003-.32-1.823-.963-2.462-.642-.639-1.447-.958-2.416-.958zM145.887 24.21c0 .339.193.57.581.696v.244h-3.307v-.244c.376-.1.564-.332.564-.695v-8.398c0-.35-.188-.576-.564-.676v-.245h3.816v.245a.811.811 0 0 0-.31.112c-.06.05-.09.132-.09.244 0 .1.018.182.054.245a4.9 4.9 0 0 0 .237.282l5.323 5.448v-5.655c0-.35-.188-.576-.563-.676v-.245h3.306v.245c-.387.1-.581.325-.581.676v8.398c0 .338.194.57.581.695v.244h-3.56v-.244a.982.982 0 0 0 .254-.075c.084-.05.127-.132.127-.245 0-.175-.091-.344-.273-.507-.17-.163-.278-.27-.327-.32l-5.268-5.372v5.824zM171.524 16.64l-.254-.15a.732.732 0 0 0-.128-.452c-.073-.112-.412-.388-1.017-.826-.605-.439-1.545-.658-2.816-.658-.812 0-1.515.088-2.108.263-.581.175-.902.576-.962 1.203 0 .425.151.726.453.901.304.163 1.163.32 2.58.47 1.418.15 2.713.438 3.888.864 1.188.426 1.78 1.453 1.78 3.081 0 1.403-.568 2.43-1.707 3.081-1.126.64-2.428.958-3.906.958-.8 0-1.575-.08-2.325-.244-.751-.175-1.345-.375-1.781-.6-.436-.239-.72-.395-.854-.47a.753.753 0 0 0-.363-.113c-.134 0-.273.062-.418.188l-.255-.132 1.309-3.062.272.112c0 .702.509 1.24 1.526 1.616 1.017.376 1.95.564 2.798.564.8 0 1.52-.125 2.162-.376.654-.25.981-.708.981-1.371 0-.664-.944-1.109-2.834-1.334-1.877-.226-3.306-.52-4.288-.883-.98-.364-1.471-1.322-1.471-2.875 0-1.403.533-2.417 1.598-3.043 1.066-.626 2.332-.94 3.797-.94.678 0 1.363.088 2.053.263.69.176 1.248.364 1.672.564.423.188.715.32.872.395.158.062.315.106.473.131a.62.62 0 0 0 .2-.038.997.997 0 0 0 .254-.169l.254.132-1.435 2.95zM180.53 24.21c0 .339.188.57.564.696v.244h-3.507v-.244c.376-.113.563-.345.563-.695v-7.459h-2.925c-.327 0-.551.194-.673.583h-.235V14.29h.235c.061.2.14.35.237.451.097.1.242.15.436.15h8.23c.339 0 .557-.2.654-.6h.254v3.043h-.254c-.097-.389-.315-.583-.654-.583h-2.925v7.459zM196.792 15.137a1.048 1.048 0 0 0-.437.244c-.097.1-.144.25-.144.45v5.43c0 1.578-.424 2.662-1.273 3.25-.847.576-2.095.864-3.742.864-1.635 0-2.883-.288-3.742-.864-.861-.576-1.29-1.66-1.29-3.25v-5.43c0-.338-.188-.57-.564-.694v-.245h3.525v.245c-.376.125-.564.356-.564.695v4.94c0 .99.207 1.685.619 2.086.423.388 1.131.582 2.125.582.98 0 1.684-.2 2.108-.6.423-.402.636-1.09.636-2.067v-4.941c0-.188-.05-.332-.146-.432-.085-.113-.224-.2-.418-.263l-.018-.245h3.325v.245zM203.87 14.892c.847 0 1.586.075 2.216.226.63.15 1.2.463 1.708.94.52.475.902 1.057 1.144 1.746.243.677.363 1.416.363 2.217 0 1.741-.478 3.031-1.435 3.87-.945.84-2.277 1.259-3.996 1.259h-5.833v-.244c.376-.1.564-.332.564-.695v-8.398c0-.35-.188-.576-.564-.676v-.245h5.833zm-.346 8.398c1.09 0 1.914-.263 2.47-.789.57-.539.855-1.365.855-2.48 0-1.09-.29-1.904-.872-2.442-.57-.551-1.387-.827-2.453-.827h-2.543v6.538h2.543zM214.088 14.892v.245c-.375.112-.563.338-.563.676v8.398c0 .188.042.338.127.45.097.1.242.182.436.245v.244h-3.506v-.244c.375-.1.563-.332.563-.695v-8.398c0-.35-.188-.576-.563-.676v-.245h3.506zM221.186 25.375c-1.647 0-3.034-.475-4.16-1.427-1.114-.952-1.672-2.261-1.672-3.927s.558-2.974 1.671-3.926c1.127-.952 2.514-1.428 4.161-1.428 1.635 0 3.01.476 4.125 1.428 1.126.952 1.689 2.26 1.689 3.926 0 1.653-.563 2.962-1.69 3.927-1.126.952-2.501 1.427-4.124 1.427zm0-8.773c-.969 0-1.774.32-2.417.958-.64.639-.962 1.46-.962 2.461 0 1.002.321 1.823.962 2.461.643.639 1.448.958 2.417.958.957 0 1.756-.319 2.399-.958.654-.651.98-1.471.98-2.46 0-1.003-.32-1.823-.962-2.462-.643-.639-1.448-.958-2.417-.958z"/>
    </g>
</svg>
