<svg xmlns="http://www.w3.org/2000/svg" width="20" height="21" fill="none" viewBox="0 0 20 21">
    <path fill="#fff" d="M19.485 14.758l-2.486-2.486c-.663-.663-1.822-.665-2.486 0l-.415.414 4.972 4.972.415-.414a1.756 1.756 0 0 0 0-2.486zM13.247 13.492c-.523.405-1.27.389-1.747-.09L6.585 8.484c-.48-.48-.495-1.226-.09-1.748l-4.96-4.96C-.6 4.263-.517 8.01 1.838 10.366l7.778 7.782a6.29 6.29 0 0 0 8.59.304l-4.96-4.96zM7.712 2.984L5.226.498c-.663-.663-1.822-.665-2.486 0l-.415.414 4.972 4.972.415-.414c.688-.688.686-1.801 0-2.486z"/>
</svg>
