<svg xmlns="http://www.w3.org/2000/svg" width="22" height="22" fill="none" viewBox="0 0 22 22">
    <rect width="22" height="22" fill="#fff" rx="2"/>
    <path fill="#4C4C4C" d="M18.92 15.128a1.069 1.069 0 0 0-.05-.103c-.26-.493-.758-1.098-1.492-1.815l-.016-.016-.007-.008-.008-.009h-.008a9.302 9.302 0 0 1-.633-.673c-.161-.22-.198-.44-.11-.666.063-.17.298-.528.704-1.075.213-.29.382-.523.507-.698C18.708 8.805 19.1 8 18.98 7.65l-.047-.082c-.03-.05-.112-.094-.242-.136a1.171 1.171 0 0 0-.5-.02l-2.249.016a.278.278 0 0 0-.156.004l-.102.025-.039.02-.03.025a.354.354 0 0 0-.087.087.572.572 0 0 0-.078.143 13.716 13.716 0 0 1-.835 1.848c-.193.34-.37.634-.532.883-.16.25-.296.433-.406.55-.109.118-.208.212-.296.284-.089.071-.157.101-.203.09a5.502 5.502 0 0 1-.133-.033.537.537 0 0 1-.176-.201.936.936 0 0 1-.09-.32 3.706 3.706 0 0 1-.023-.727c.005-.17.008-.285.008-.345 0-.208.004-.434.011-.678l.02-.579c.005-.142.008-.293.008-.452 0-.158-.01-.283-.028-.373a1.325 1.325 0 0 0-.081-.263.437.437 0 0 0-.16-.197.878.878 0 0 0-.262-.111A4.95 4.95 0 0 0 11.216 7c-.968-.01-1.59.055-1.866.197-.11.06-.208.143-.297.247-.094.12-.107.186-.04.197.313.049.535.167.665.353l.047.098c.036.072.073.198.109.378a4 4 0 0 1 .07.6c.026.4.026.742 0 1.026-.026.285-.05.507-.074.666a1.384 1.384 0 0 1-.2.566.138.138 0 0 1-.038.041.56.56 0 0 1-.211.042c-.073 0-.161-.039-.266-.116a1.913 1.913 0 0 1-.324-.316 4.232 4.232 0 0 1-.378-.562 9.994 9.994 0 0 1-.438-.854l-.125-.239a20.95 20.95 0 0 1-.32-.669 13.25 13.25 0 0 1-.36-.85.54.54 0 0 0-.187-.263l-.039-.025a.798.798 0 0 0-.305-.123l-2.14.017c-.218 0-.366.052-.444.156l-.032.049A.277.277 0 0 0 4 7.748c0 .06.016.135.047.222a27.74 27.74 0 0 0 1.019 2.234c.367.717.686 1.295.957 1.733.27.438.546.851.828 1.24.28.389.467.638.558.747.091.11.163.192.215.247l.195.197c.125.131.308.289.55.472.243.184.51.364.805.542.294.178.637.323 1.027.435.39.113.77.158 1.14.136h.898c.183-.016.32-.077.414-.18l.031-.042a.56.56 0 0 0 .059-.152.875.875 0 0 0 .027-.225 2.841 2.841 0 0 1 .051-.637c.039-.189.083-.331.133-.427a1.049 1.049 0 0 1 .3-.361.497.497 0 0 1 .063-.029c.125-.044.272-.001.441.127.17.13.328.288.477.477.148.189.327.4.535.636.208.236.39.41.546.526l.157.099c.104.065.24.126.406.18a.835.835 0 0 0 .437.041l2-.032c.197 0 .351-.035.46-.103.11-.069.174-.144.195-.226a.669.669 0 0 0 .004-.28 1.068 1.068 0 0 0-.055-.217z"/>
</svg>
