<svg xmlns="http://www.w3.org/2000/svg" width="22" height="22" fill="none" viewBox="0 0 22 22">
    <rect width="22" height="22" fill="#fff" rx="2"/>
    <path fill="#4C4C4C" d="M10.855 5h-.003a6.005 6.005 0 0 0-5.998 6c0 1.313.423 2.529 1.142 3.517l-.748 2.229 2.306-.737c.949.628 2.08.991 3.301.991a6.006 6.006 0 0 0 5.999-6c0-3.308-2.69-6-5.999-6zm3.491 8.473c-.144.409-.719.747-1.177.846-.314.067-.723.12-2.102-.451-1.763-.73-2.898-2.522-2.987-2.639-.085-.116-.712-.948-.712-1.81 0-.86.437-1.28.613-1.46.145-.147.384-.215.614-.215.074 0 .14.004.2.007.177.008.265.018.382.296.144.349.497 1.21.539 1.299.043.088.085.208.025.324-.056.12-.105.174-.194.276-.088.102-.172.18-.261.289-.081.095-.172.197-.07.374.102.172.454.747.973 1.21.67.596 1.213.786 1.407.867.145.06.317.046.423-.067.134-.144.3-.384.469-.62.12-.17.271-.191.43-.131.162.056 1.02.48 1.196.568.176.088.292.13.335.204.042.075.042.423-.103.833z"/>
</svg>
