<svg xmlns="http://www.w3.org/2000/svg" width="26" height="26" fill="none" viewBox="0 0 26 26">
    <path fill="#D201F8" d="M25.988 20.519c.055.422-.074.79-.386 1.102l-3.66 3.635a2.06 2.06 0 0 1-.647.468 2.67 2.67 0 0 1-.785.248c-.018 0-.073.005-.165.014-.091.01-.21.014-.358.014-.348 0-.913-.06-1.692-.18-.78-.119-1.734-.412-2.863-.88-1.129-.469-2.408-1.171-3.84-2.107-1.43-.937-2.954-2.222-4.569-3.856-1.284-1.267-2.348-2.48-3.192-3.636-.845-1.157-1.523-2.226-2.037-3.209-.514-.982-.9-1.873-1.156-2.671C.38 8.662.206 7.973.115 7.395c-.092-.578-.129-1.033-.11-1.363.018-.33.027-.514.027-.551.037-.257.12-.519.248-.785s.284-.482.468-.647L4.408.386C4.665.129 4.96 0 5.29 0c.239 0 .45.069.633.207.184.137.34.307.468.51l2.945 5.59c.165.294.211.615.138.964-.073.349-.23.643-.468.882l-1.349 1.35a.46.46 0 0 0-.096.178.68.68 0 0 0-.041.207c.073.385.238.826.495 1.322.22.44.56.977 1.019 1.611.458.633 1.11 1.363 1.954 2.19.825.844 1.56 1.5 2.202 1.969.642.468 1.179.812 1.61 1.033.431.22.761.353.99.399l.345.069a.655.655 0 0 0 .179-.042.46.46 0 0 0 .179-.096l1.569-1.597c.33-.294.715-.441 1.156-.441.312 0 .56.055.743.165h.027l5.312 3.14c.386.239.615.542.689.909z"/>
</svg>
