<svg xmlns="http://www.w3.org/2000/svg" width="74" height="50" fill="none" viewBox="0 0 74 50">
    <path fill="#012C57" d="M26.677 49.748H14.21V25.682c0-2.922.062-5.596.187-8.021-.767.932-1.72 1.907-2.86 2.922l-5.162 4.26L0 17.008 15.608 4.29h11.07v45.457z" opacity=".1"/>
    <circle cx="21.328" cy="21.328" r="21.328" fill="#012C57" transform="matrix(.99496 0 0 .99496 29.703 4.594)"/>
    <path fill="#fff" fill-rule="evenodd" d="M65.754 6.478C55.7-2.738 39.947-2.068 30.73 8.154c-9.216 10.222-8.546 25.975 1.676 35.191 10.222 9.217 25.975 8.38 35.191-1.843 9.217-10.055 8.38-25.807-1.843-35.024zm-14.58 35.694l-2.848.168c-.503 0-1.34-.503-1.34-.67-4.693-4.19-7.542-10.055-7.877-16.255-.335-6.368 1.844-12.569 6.2-17.261 0 0 .839-.503 1.341-.503l2.85-.167c1.004 0 2.178.67 2.68 1.508l.335.335c.503 1.006.503 2.514 0 3.352L50.84 16.03c-.503 1.006-1.676 1.844-2.682 1.844l-2.01.167c-2.179 4.357-2.011 9.72.837 13.91h1.844c1.005-.169 2.346.67 2.849 1.507l2.01 3.184c.67.838.67 2.346.336 3.352l-.168.335c-.503 1.005-1.676 1.843-2.681 1.843z" clip-rule="evenodd"/>
</svg>
