<svg xmlns="http://www.w3.org/2000/svg" width="75" height="50" fill="none" viewBox="0 0 75 50">
    <path fill="#012C57" d="M33.163 45.665H.493v-8.006l10.992-11.116c3.141-3.285 5.194-5.522 6.159-6.713.965-1.211 1.632-2.248 2.001-3.11.39-.862.585-1.765.585-2.71 0-1.17-.38-2.094-1.139-2.77-.76-.678-1.827-1.017-3.202-1.017-1.417 0-2.854.41-4.311 1.232-1.437.8-3.07 1.99-4.896 3.571L0 7.206C2.32 5.131 4.27 3.653 5.85 2.77A20.58 20.58 0 0 1 10.993.708C12.86.236 14.955 0 17.274 0c2.915 0 5.512.513 7.79 1.54 2.3 1.026 4.076 2.494 5.328 4.403C31.665 7.83 32.3 9.956 32.3 12.317c0 1.765-.226 3.397-.678 4.896-.43 1.498-1.108 2.976-2.032 4.434-.924 1.437-2.155 2.956-3.695 4.557-1.519 1.601-4.773 4.64-9.761 9.114v.308h17.028v10.039z" opacity=".1"/>
    <path fill="#fff" fill-rule="evenodd" d="M66.32 7.148c-9.958-9.127-25.558-8.463-34.686 1.66-9.127 10.123-8.463 25.724 1.66 34.851 10.123 9.128 25.724 8.298 34.851-1.825 9.128-9.958 8.298-25.558-1.825-34.686z" clip-rule="evenodd"/>
    <g fill="#012C57">
        <path d="M56.454 18.572c.02-.34-.184-.807-.57-.894-.194-.044-.371.033-.466-.167-.054-.113.036-.413.05-.535.036-.302.054-.625.132-.92a7.77 7.77 0 0 0 .256-1.68c.066-1.744-.84-3.18-2.518-3.889a10.302 10.302 0 0 0-3.932-.796c-.248-.002-.498.004-.749.018-.803.046-1.66.106-2.396.444a2.22 2.22 0 0 0-.21.111 2.28 2.28 0 0 0-.678.647c-.182.26-.243.407-.511.611-.237.18-.449.314-.712.424a1.183 1.183 0 0 0-.57.47c-.26.438-.351.97-.373 1.468a15.93 15.93 0 0 0 .048 1.868c.016.22.06.441.107.66.072.337.148.674.134 1.014-.005.106-.05.166-.118.204a.595.595 0 0 1-.069.011c-.127.014-.257.01-.382.038-.385.086-.588.552-.57.893l.005.066c-.01.16-.005.32.005.478.02.321.089.639.13.959.092.71.442 1.392 1.156 1.73.15.114.248.23.302.43.43 1.585 1.264 2.863 2.619 3.742.167.108.341.21.526.308.22.106.513.23.893.354l.063.026a3.334 3.334 0 0 0 1.35.254 3.334 3.334 0 0 0 1.351-.254 7.523 7.523 0 0 0 .958-.38 6.91 6.91 0 0 0 .525-.307 5.895 5.895 0 0 0 1.744-1.74c.228-.35.41-.72.571-1.1.156-.37.154-.778.426-1.097.2-.235.461-.412.695-.616.421-.367.572-.822.64-1.35.041-.32.11-.637.13-.958.01-.158.015-.32.005-.479l.003-.066zM60.964 30.538l-5.004-1.804c-.377-.089-.754-.177-1.128-.27l-.393-.091c-.11-.025-.23-.016-.423-.03-.022.082-.045.164-.071.244-.329 1.164-.641 2.328-1.012 3.474-.442 1.357-.939 2.699-1.435 4.04-.004.016-.01.03-.017.046-.054.15-.132.294-.209.442-.09-.619-.2-1.428-.313-2.224a201.09 201.09 0 0 1-.393-2.981c.078-.171.148-.331.226-.487.01-.022.019-.046.032-.068.042-.094.084-.196.129-.285.026-.033.045-.076.068-.113.064-.125.148-.257.148-.42 0-.134-.058-.257-.1-.36l-.023-.047c-.01-.021-.01-.03-.025-.058a.687.687 0 0 0-.055-.113l-.013-.019c-.007-.009-.023-.024-.023-.033a.321.321 0 0 0-.093-.099.449.449 0 0 0-.168-.06h-.112c-.036-.025-.081-.025-.1-.025-.155-.01-.545-.01-1.048-.01h-.006c-.503 0-.893 0-1.048.01-.019 0-.064 0-.1.024h-.112c-.045.01-.106.022-.168.061a.316.316 0 0 0-.093.099c0 .009-.016.024-.023.033l-.013.019a.706.706 0 0 0-.054.113c-.017.028-.017.037-.026.058l-.023.046c-.042.104-.1.227-.1.362 0 .162.084.294.149.42.022.036.042.08.067.112.045.09.087.19.13.285.012.022.022.046.031.068.078.156.149.316.226.487 0 .049-.19 1.492-.393 2.98-.113.797-.222 1.606-.313 2.225-.077-.147-.155-.291-.21-.442-.006-.015-.012-.03-.016-.046-.496-1.341-.993-2.683-1.435-4.04-.37-1.146-.683-2.31-1.012-3.474-.026-.08-.048-.162-.071-.245-.193.016-.313.006-.423.03l-.393.093c-.374.092-.75.18-1.128.27l-5.004 1.803c-2.95.938-2.772 2.807-2.772 2.807v3.697c.27 2.252 2.102 2.209 2.102 2.209h24.457s1.83.043 2.102-2.209v-3.697s.177-1.869-2.773-2.807z"/>
    </g>
</svg>
