<svg xmlns="http://www.w3.org/2000/svg" width="74" height="50" fill="none" viewBox="0 0 74 50">
    <path fill="#012C57" d="M31.003 13.47c0 2.803-.855 5.214-2.565 7.234-1.71 1.999-4.183 3.451-7.419 4.358v.186c7.542.948 11.314 4.513 11.314 10.695 0 4.204-1.67 7.511-5.008 9.922-3.318 2.411-7.934 3.617-13.848 3.617-2.432 0-4.688-.176-6.77-.526-2.06-.35-4.296-.989-6.707-1.916V36.9a27.474 27.474 0 0 0 6.028 2.256c2.06.474 3.956.711 5.687.711 2.68 0 4.626-.37 5.842-1.112 1.237-.763 1.855-1.948 1.855-3.555 0-1.237-.32-2.184-.958-2.844-.64-.68-1.67-1.185-3.091-1.515-1.422-.35-3.277-.525-5.564-.525H7.017v-9.18H9.86c6.203 0 9.305-1.587 9.305-4.76 0-1.196-.464-2.082-1.391-2.659-.907-.577-2.133-.865-3.679-.865-2.885 0-5.873.968-8.964 2.905l-5.07-8.16c2.391-1.649 4.833-2.823 7.327-3.524 2.514-.7 5.388-1.051 8.624-1.051 4.678 0 8.346.927 11.004 2.782 2.658 1.855 3.987 4.41 3.987 7.666z" opacity=".1"/>
    <path fill="#fff" fill-rule="evenodd" d="M65.802 6.44c-9.996-9.162-25.656-8.496-34.819 1.666-9.162 10.163-8.496 25.823 1.666 34.986 10.163 9.163 25.823 8.33 34.986-1.833 9.163-9.996 8.33-25.656-1.833-34.819z" clip-rule="evenodd"/>
    <g fill="#012C57">
        <path d="M55.039 27.859a2.057 2.057 0 0 0 2.847-.544c.635-.933.39-2.2-.548-2.832l-6.768-4.56c.043-1.366-.531-2.667-1.665-3.43l-1.626-1.097c-1.855-1.25-3.922-1.436-5.326.625l-5.766 8.466c-1.404 2.061-1.04 4.745.816 5.995l1.556 1.048.07.048 8.274 5.575a2.057 2.057 0 0 0 2.847-.544c.636-.933.39-2.2-.547-2.832l1.238.834a2.057 2.057 0 0 0 2.847-.545c.635-.932.39-2.2-.548-2.831l.919.62a2.057 2.057 0 0 0 2.847-.546c.635-.932.39-2.2-.547-2.83l-.92-.62z"/>
        <path d="M52.205 17.48l-.946 1.389c.038.211.065.426.076.646l4.243 2.858 1.224-1.797a5.381 5.381 0 0 0 4.738-2.337 5.313 5.313 0 0 0 .586-4.862L59.63 17.04l-3.596-.257-1.575-3.227 2.496-3.664a5.38 5.38 0 0 0-4.324 2.344 5.319 5.319 0 0 0-.426 5.243zM40.923 34.045l-.825 1.212a2.751 2.751 0 0 0 .741 3.834 2.785 2.785 0 0 0 3.855-.737l.825-1.212-4.596-3.097z"/>
    </g>
</svg>
