<svg xmlns="http://www.w3.org/2000/svg" width="75" height="50" fill="none" viewBox="0 0 75 50">
    <path fill="#012C57" d="M35.014 38.689h-4.97v8.738H18v-8.738H0v-8.954l18.773-27.45h11.27V29.58h4.971v9.109zM18.001 29.58v-5.249c0-.988.031-2.316.093-3.983.082-1.688.144-2.573.185-2.656h-.34a32.576 32.576 0 0 1-2.377 4.447L10.56 29.58H18z" opacity=".1"/>
    <path fill="#fff" fill-rule="evenodd" d="M66.811 6.433c-9.985-9.153-25.628-8.487-34.78 1.665-9.154 10.15-8.488 25.794 1.664 34.947 10.15 9.153 25.794 8.32 34.947-1.83 9.153-9.986 8.32-25.629-1.83-34.782z" clip-rule="evenodd"/>
    <path fill="#012C57" d="M59.08 9.88H42.775a3.705 3.705 0 0 0-3.705 3.706v22.231a3.705 3.705 0 0 0 3.705 3.705H59.08a3.705 3.705 0 0 0 3.705-3.705V13.586A3.705 3.705 0 0 0 59.08 9.88zm-8.893 20.75H45.74a.74.74 0 1 1 0-1.482h4.447a.74.74 0 1 1 0 1.482zm5.928-4.446H45.74a.74.74 0 1 1 0-1.482h10.375a.74.74 0 1 1 0 1.482zm0-4.447H45.74a.74.74 0 1 1 0-1.482h10.375a.74.74 0 1 1 0 1.482zm0-4.446H45.74a.741.741 0 0 1 0-1.482h10.375a.74.74 0 1 1 0 1.482z"/>
</svg>
