<svg xmlns="http://www.w3.org/2000/svg" width="100" height="100" fill="none" viewBox="0 0 100 100">
    <path fill="#000" d="M16.667 0C5.397 0 0 15.842 0 26.19c0 13.563 3.537 25.746 10.975 38.765C22.655 85.398 37.572 100 55.952 100c7.296 0 15.477-7.576 15.477-15.476-2.996-3.677-11.905-13.095-11.905-13.095-1.886-1.887-4.762 0-8.334 2.38-5.032 2.936-7.383 2.291-10.714-1.19-4.577-4.809-9.463-11.5-13.095-17.857-3.632-6.358-5.31-12.637-7.143-19.048-1.317-4.655-1.46-7.778 3.572-10.714 2.205-1.19 5.952-2.914 5.952-4.762 0 0-3.11-13.397-4.762-17.857C22.653.815 19.556 0 16.667 0zm52.38 0C51.95 0 38.096 11.19 38.096 25c0 8.005 4.66 14.47 11.905 19.048l-5.952 14.285 17.857-9.523c2.258.423 4.725 1.19 7.143 1.19C86.146 50 100 38.81 100 25S86.146 0 69.048 0z" opacity=".1"/>
</svg>
