<svg xmlns="http://www.w3.org/2000/svg" width="16" height="16" fill="none" viewBox="0 0 16 16">
    <path fill="#fff" d="M8 12c-2.206 0-4-1.794-4-4s1.794-4 4-4 4 1.794 4 4-1.794 4-4 4zm0-6c-1.103 0-2 .897-2 2s.897 2 2 2 2-.897 2-2-.897-2-2-2zm0 10c-4.411 0-8-3.589-8-8s3.589-8 8-8 8 3.589 8 8c0 .543-.055 1.086-.163 1.612-.344 1.64-1.939 2.685-3.555 2.345a2.976 2.976 0 0 1-1.897-1.293 2.979 2.979 0 0 1-.427-2.256.999.999 0 1 1 1.957.408.993.993 0 0 0 .143.752.997.997 0 0 0 .632.432 1.009 1.009 0 0 0 1.184-.775A6.001 6.001 0 0 0 8 2C4.691 2 2 4.691 2 8a6.006 6.006 0 0 0 8.064 5.636 1 1 0 1 1 .685 1.879A7.98 7.98 0 0 1 8 16z"/>
</svg>
