<svg xmlns="http://www.w3.org/2000/svg" width="15" height="14" fill="none" viewBox="0 0 15 14">
    <path fill="#fff" d="M13.934 10.844c-.063-.062-2.958-1.756-3.05-1.802a.657.657 0 0 0-.281-.063c-.14 0-.296.094-.498.28-.093.093-.296.342-.498.59l4.078 2.239c.062-.11.109-.234.17-.358.11-.264.219-.746.079-.886zm-9.76-6.402c.219-.156.421-.342.623-.544.187-.202.28-.373.28-.498a.609.609 0 0 0-.062-.28C4.97 3.028 3.21.138 3.148.076c-.14-.14-.654-.063-.903.062a6.965 6.965 0 0 0-.498.31L4.05 4.55a.42.42 0 0 1 .125-.108zm4.92 6.03c-.188.186-.328.28-.452.28a.612.612 0 0 1-.218-.047c-.093-.032-1.027-.513-2.942-2.192-1.93-1.694-2.179-2.797-2.194-3.092 0-.11.093-.28.28-.451.109-.093.202-.202.311-.28L1.56.572C.113 1.629-.027 2.872.004 3.416c.03.621.42 3.9 3.642 6.947 4 3.792 6.77 3.636 6.957 3.636.545 0 2.101-.28 2.988-1.71l-4.109-2.253c-.17.187-.327.373-.389.435z"/>
</svg>
