<svg xmlns="http://www.w3.org/2000/svg" width="50" height="47" fill="none" viewBox="0 0 50 47">
    <path fill="#012C57" d="M24.171 10.217h7.504c.564 0 1.022-.457 1.024-1.021V1.02A1.02 1.02 0 0 0 31.336.06c-3.73 1.32-6.772 4.618-8.135 8.822-.103.31-.047.652.145.915.192.264.5.421.825.421zm6.482-7.62v5.577H25.66c1.093-2.42 2.885-4.418 4.994-5.577z"/>
    <path fill="#1EA4D9" d="M42.407 1.156a1.025 1.025 0 0 0-1.022 0c-.317.182-.51.519-.51.885v7.152a3.069 3.069 0 0 1-3.066 3.065H23.504c-.564 0-1.021.458-1.021 1.022 0 1.097.137 2.19.406 3.257L1.57 37.855A5.32 5.32 0 0 0 0 41.644 5.363 5.363 0 0 0 5.356 47a5.32 5.32 0 0 0 3.789-1.57l16.174-16.174a9.136 9.136 0 0 1 6.502-2.693h3.942c7.324 0 13.283-5.959 13.283-13.283.002-4.951-2.669-9.823-6.64-12.124zm-6.648 23.363h-3.942a11.165 11.165 0 0 0-7.947 3.292L7.696 43.986a3.28 3.28 0 0 1-2.342.97 3.316 3.316 0 0 1-3.313-3.312c0-.885.346-1.717.971-2.342l21.739-21.739c.266-.267.366-.658.255-1.02a11.255 11.255 0 0 1-.437-2.24v-.001h13.234a5.116 5.116 0 0 0 5.109-5.109V4.04c2.468 2.191 4.087 5.745 4.087 9.241 0 6.198-5.042 11.24-11.24 11.24z"/>
    <path fill="#012C57" d="M6.13 42.913a2.044 2.044 0 1 0 0-4.087 2.044 2.044 0 0 0 0 4.087zM32.132 16.454a1.024 1.024 0 0 0-1.37.458l-2.044 4.087a1.024 1.024 0 0 0 .913 1.48c.374 0 .734-.207.916-.567l2.043-4.087a1.024 1.024 0 0 0-.458-1.37zM36.22 16.454a1.024 1.024 0 0 0-1.372.458l-2.044 4.087a1.024 1.024 0 0 0 .914 1.48c.374 0 .734-.207.915-.567l2.044-4.087a1.024 1.024 0 0 0-.458-1.37zM40.306 16.454a1.024 1.024 0 0 0-1.371.458l-2.044 4.087a1.024 1.024 0 0 0 .914 1.48c.374 0 .733-.207.915-.567l2.044-4.087a1.024 1.024 0 0 0-.458-1.37z"/>
</svg>
