<svg xmlns="http://www.w3.org/2000/svg" width="90" height="38" fill="none" viewBox="0 0 90 38">
    <path fill="#1EA4D9" d="M89.15 21.585c-.49-1.102-1.243-1.787-2.15-1.98a11.792 11.792 0 0 1-.396-1.415c-.309-1.336-.593-2.19-2.483-2.92-4.056-1.562-12.225-2.908-13.788-3.156C68.56 10.328 58.933.825 54.421.629 53.943.608 53.234.546 52.35.47 50.177.283 46.893 0 43.423 0c-3.005 0-5.65.216-7.861.642-4.89.934-10.354 9.03-11.525 10.845-1.955.07-7.817.415-9.213 2.02-1.517 1.726-2.738 4.847-2.9 5.353-.031.055-.162.204-.258.315-.636.729-1.822 2.09-1.36 4.633l.062.35c.563 3.11 1.333 7.37 4.436 7.37h1.083a.76.76 0 0 0 .76-.761c0-5.23 4.26-9.486 9.494-9.486 5.236 0 9.495 4.257 9.495 9.486 0 .42.34.76.76.76H64.06c.42 0 .76-.34.76-.76 0-5.23 4.256-9.486 9.487-9.486 5.237 0 9.498 4.257 9.498 9.486 0 .42.342.76.76.76h2.275c2.064 0 3.004-3.169 3.004-6.116-.003-1.472-.247-2.83-.694-3.826zm-2.313 8.422h-1.54c-.392-5.718-5.173-10.247-10.993-10.247-5.814 0-10.589 4.53-10.981 10.247H37.127c-.392-5.718-5.17-10.247-10.989-10.247-5.818 0-10.597 4.53-10.989 10.247h-.348c-1.832 0-2.472-3.538-2.939-6.12l-.063-.352c-.331-1.822.445-2.713 1.012-3.362.24-.274.446-.51.541-.803.217-.663 1.373-3.45 2.616-4.862.795-.915 5.457-1.435 8.514-1.516a.759.759 0 0 0 .626-.358c.06-.097 5.991-9.594 10.74-10.5 2.118-.407 4.666-.613 7.575-.613 3.404 0 6.652.28 8.797.464.91.079 1.642.142 2.135.163 3.471.15 12.057 8.144 15.07 11.21a.777.777 0 0 0 .425.219c.096.015 9.475 1.474 13.724 3.11 1.233.476 1.308.793 1.55 1.842.126.544.282 1.22.635 2.07a.758.758 0 0 0 .702.468c.528 0 .967.382 1.304 1.139.358.805.558 1.94.558 3.204-.003 2.764-.895 4.597-1.486 4.597z"/>
    <path fill="#012C57" d="M26.139 23.542c-3.986 0-7.23 3.241-7.23 7.227 0 3.988 3.244 7.231 7.23 7.231 3.989 0 7.233-3.243 7.233-7.23 0-3.987-3.245-7.228-7.233-7.228zm0 12.938a5.717 5.717 0 0 1-5.708-5.71 5.715 5.715 0 0 1 5.708-5.708c3.15 0 5.712 2.56 5.712 5.707a5.72 5.72 0 0 1-5.712 5.711zM74.758 23.542c-3.987 0-7.23 3.241-7.23 7.227A7.238 7.238 0 0 0 74.757 38a7.238 7.238 0 0 0 7.231-7.23c0-3.987-3.243-7.228-7.23-7.228zm0 12.938a5.716 5.716 0 0 1-5.709-5.71 5.714 5.714 0 0 1 5.71-5.708 5.717 5.717 0 0 1 5.71 5.707 5.72 5.72 0 0 1-5.71 5.711z"/>
    <path fill="#012C57" d="M26.139 26.587a4.187 4.187 0 0 0-4.189 4.177 4.19 4.19 0 0 0 4.189 4.184 4.19 4.19 0 0 0 4.186-4.184 4.186 4.186 0 0 0-4.186-4.177zm0 6.84a2.67 2.67 0 0 1-2.668-2.664 2.665 2.665 0 0 1 2.668-2.656 2.663 2.663 0 0 1 2.664 2.656 2.668 2.668 0 0 1-2.664 2.665zM74.758 26.587c-2.309 0-4.19 1.873-4.19 4.177a4.192 4.192 0 0 0 4.19 4.184 4.188 4.188 0 0 0 4.185-4.184 4.184 4.184 0 0 0-4.185-4.177zm0 6.84a2.67 2.67 0 0 1-2.668-2.664 2.664 2.664 0 0 1 2.668-2.656 2.664 2.664 0 0 1 2.665 2.656 2.67 2.67 0 0 1-2.665 2.665z"/>
    <path fill="#1EA4D9" d="M32.741 5.972c-2.764 2.564-4.142 8.085-4.142 8.085h16.367V4.02s-.99-.064-2.426-.064c-3-.001-7.934.28-9.799 2.015zm10.703-.486v7.051H30.662c.646-1.796 1.725-4.162 3.115-5.453 1.083-1.006 4.359-1.607 8.764-1.607.327 0 .63.004.903.009zM52.416 4.193c-2.356-.195-3.626-.245-4.307-.245-.69 0-.778.05-.778.05v10.059h19.087c0-.001-9.28-9.467-14.002-9.864zm-3.566 8.344V5.485c.71.024 1.793.087 3.438.225 2.35.197 6.845 3.652 10.343 6.828H48.85v-.001z"/>
    <path fill="#012C57" d="M1.267 25.298c0-1.11.6-2.147 1.563-2.707l-.635-1.096A4.406 4.406 0 0 0 0 25.298a4.4 4.4 0 0 0 4.394 4.397v-1.268a3.132 3.132 0 0 1-3.127-3.129zM7.933 31.211a3.104 3.104 0 0 1-1.696-1.69 3.136 3.136 0 0 1 .404-3.098l-1.007-.77a4.407 4.407 0 0 0-.566 4.357 4.356 4.356 0 0 0 2.382 2.374 4.355 4.355 0 0 0 3.364-.004l-.487-1.172a3.089 3.089 0 0 1-2.394.003zM6.617 23.814c.45.123.914.188 1.383.188v-1.27c-.355 0-.706-.046-1.046-.14l-.337 1.222zM5.984 22.178a3.953 3.953 0 0 1-.823-.663l-.918.875c.322.34.689.634 1.09.874l.651-1.086zM7.335 14.953l-.215-1.25c-.463.08-.912.22-1.333.42l.542 1.146c.318-.15.656-.257 1.006-.316zM4.277 17.582l-1.203-.398a5.175 5.175 0 0 0-.256 1.374l1.267.063c.018-.356.083-.704.192-1.039zM2.937 19.947c.103.456.267.897.487 1.31l1.118-.596a3.903 3.903 0 0 1-.367-.99l-1.238.276zM5.442 15.844l-.827-.96a5.19 5.19 0 0 0-.927 1.045l1.052.705a4 4 0 0 1 .702-.79z"/>
</svg>
