<svg xmlns="http://www.w3.org/2000/svg" width="48" height="48" fill="none" viewBox="0 0 48 48">
    <path fill="#012C57" d="M22.224 26.299L19.927 24a.89.89 0 1 0-1.258 1.259l2.848 2.847a1 1 0 0 0 1.414 0l6.404-6.403a.89.89 0 1 0-1.258-1.258l-5.853 5.854z"/>
    <path fill="#012C57" d="M24 10.667c-7.354 0-13.334 5.98-13.334 13.333s5.98 13.333 13.333 13.333S37.333 31.353 37.333 24s-5.98-13.333-13.334-13.333zm0 24.889c-6.372 0-11.556-5.184-11.556-11.556 0-6.372 5.184-11.556 11.555-11.556 6.372 0 11.556 5.184 11.556 11.556 0 6.372-5.184 11.556-11.556 11.556z"/>
    <path fill="#1EA4D9" d="M48 30.025V17.977h-3.452a21.235 21.235 0 0 0-1.757-4.247l2.441-2.441-8.52-8.52-2.442 2.442a21.4 21.4 0 0 0-4.245-1.759V0H17.977v3.45a21.397 21.397 0 0 0-4.245 1.759l-2.441-2.44-8.521 8.52 2.44 2.44a21.235 21.235 0 0 0-1.756 4.248H0v12.048h3.452a21.235 21.235 0 0 0 1.757 4.247l-2.44 2.44 8.522 8.518 2.44-2.44a21.397 21.397 0 0 0 4.246 1.758V48h12.048v-3.45a21.4 21.4 0 0 0 4.245-1.759l2.441 2.441 8.521-8.52-2.44-2.44a21.235 21.235 0 0 0 1.756-4.247H48zm-4.992-1.111a19.516 19.516 0 0 1-2.09 5.056l-.35.592 2.148 2.15-6.007 6.006-2.149-2.15-.592.35a19.63 19.63 0 0 1-5.054 2.094l-.667.174v3.036h-8.492v-3.038l-.667-.174a19.544 19.544 0 0 1-5.054-2.094l-.592-.35-2.15 2.15-6.008-6.005 2.149-2.151-.35-.592a19.513 19.513 0 0 1-2.091-5.056l-.174-.665h-3.04v-8.492h3.04l.172-.667a19.513 19.513 0 0 1 2.09-5.056l.351-.592-2.147-2.151 6.007-6.005 2.149 2.15.592-.35a19.63 19.63 0 0 1 5.054-2.094l.667-.174V1.778h8.492v3.038l.667.174a19.541 19.541 0 0 1 5.054 2.094l.592.35 2.15-2.15 6.007 6.005-2.15 2.151.35.592a19.51 19.51 0 0 1 2.091 5.056l.173.667h3.04v8.492h-3.04l-.171.667z"/>
</svg>
