<svg xmlns="http://www.w3.org/2000/svg" width="43" height="47" fill="none" viewBox="0 0 43 47">
    <g fill-rule="evenodd" clip-rule="evenodd">
        <path fill="#012C57" d="M17.156 18.758a1.091 1.091 0 0 1 1.09 1.093v3.207a1.099 1.099 0 0 1-.673 1.01 1.091 1.091 0 0 1-.417.083h-3.228a1.09 1.09 0 0 1-1.09-1.093v-3.207a1.098 1.098 0 0 1 .673-1.01c.132-.054.275-.083.417-.083h3.228zm-1.09 2.186h-1.047v1.021h1.046v-1.021zM36.17 18.758a1.091 1.091 0 0 1 1.09 1.093v3.207a1.099 1.099 0 0 1-.674 1.01 1.091 1.091 0 0 1-.417.083h-3.221a1.09 1.09 0 0 1-1.09-1.093v-3.207a1.098 1.098 0 0 1 .672-1.01c.132-.054.275-.083.418-.083h3.221zm-1.091 2.186h-1.041v1.021h1.041v-1.021zM17.156 28.205a1.09 1.09 0 0 1 1.09 1.093v3.207a1.098 1.098 0 0 1-.673 1.01 1.091 1.091 0 0 1-.417.082h-3.228a1.09 1.09 0 0 1-1.09-1.092v-3.207a1.099 1.099 0 0 1 .673-1.01c.132-.055.275-.083.417-.083h3.228zm-1.09 2.185h-1.047v1.022h1.046V30.39zM36.17 28.205a1.09 1.09 0 0 1 1.09 1.093v3.207a1.098 1.098 0 0 1-.674 1.01 1.091 1.091 0 0 1-.417.082h-3.221a1.09 1.09 0 0 1-1.09-1.092v-3.207a1.099 1.099 0 0 1 .672-1.01c.132-.055.275-.083.418-.083h3.221zm-1.091 2.185h-1.041v1.022h1.041V30.39z"/>
        <path fill="#1EA4D9" d="M32.996.001a1.092 1.092 0 0 1 .788.338l8.002 8.397.006.007a1.098 1.098 0 0 1 .302.914v36.24a1.097 1.097 0 0 1-.673 1.009 1.091 1.091 0 0 1-.417.083H9.264a1.092 1.092 0 0 1-.944-.328c-.002 0-.004-.005-.006-.006-.002 0-.003 0-.004-.005L.302 38.247A1.096 1.096 0 0 1 0 37.492v-36.4A1.098 1.098 0 0 1 .673.084C.805.028.948 0 1.09 0l31.906.001zm-.466 2.186H3.668l5.947 6.217h28.84L32.53 2.187zM2.18 3.789v33.266l5.828 6.115V9.883L2.18 3.789zm37.734 6.8H10.188v34.215h7.332V42.54c0-2.361 1.952-4.295 4.317-4.295h6.427c2.362 0 4.312 1.934 4.312 4.295v2.264h7.338V10.59zm-11.65 29.842h-6.427c-1.188 0-2.136.951-2.136 2.109v2.264h10.695V42.54c0-1.158-.95-2.11-2.132-2.11z"/>
        <path fill="#012C57" d="M26.54 18.758a1.091 1.091 0 0 1 1.09 1.093v3.207a1.099 1.099 0 0 1-.673 1.01 1.091 1.091 0 0 1-.417.083h-3.227a1.09 1.09 0 0 1-1.09-1.093v-3.207a1.098 1.098 0 0 1 .673-1.01c.131-.054.274-.083.417-.083h3.227zm-1.09 2.186h-1.047v1.021h1.047v-1.021zM26.54 28.205a1.09 1.09 0 0 1 1.09 1.093v3.207a1.098 1.098 0 0 1-.673 1.01 1.091 1.091 0 0 1-.417.082h-3.227a1.09 1.09 0 0 1-1.09-1.092v-3.207a1.099 1.099 0 0 1 .673-1.01c.131-.055.274-.083.417-.083h3.227zm-1.09 2.185h-1.047v1.022h1.047V30.39z"/>
    </g>
</svg>
