<svg xmlns="http://www.w3.org/2000/svg" width="50" height="48" fill="none" viewBox="0 0 50 48">
    <path fill="#1EA4D9" d="M44.114 0H5.886A5.893 5.893 0 0 0 0 5.886V41.47a5.893 5.893 0 0 0 5.886 5.886h38.228A5.893 5.893 0 0 0 50 41.471V5.886A5.893 5.893 0 0 0 44.114 0zm3.362 41.471a3.365 3.365 0 0 1-3.362 3.361H5.886a3.365 3.365 0 0 1-3.361-3.36V14.695h44.95v26.775zm0-29.3H2.525V5.886a3.365 3.365 0 0 1 3.361-3.36h38.228a3.365 3.365 0 0 1 3.361 3.36v6.285z"/>
    <path fill="#012C57" d="M10.058 6.447H6.382v2.525h3.676V6.447zM16.002 6.447h-3.675v2.525h3.675V6.447zM21.947 6.447h-3.675v2.525h3.675V6.447zM24.894 26.835a4.633 4.633 0 0 0 4.45-3.366h10.91v-2.525h-10.91a4.633 4.633 0 0 0-4.45-3.367 4.633 4.633 0 0 0-4.449 3.367H9.535v2.525h10.91a4.633 4.633 0 0 0 4.45 3.366zm0-6.733c1.16 0 2.104.944 2.104 2.104 0 1.16-.944 2.104-2.104 2.104a2.106 2.106 0 0 1-2.104-2.104c0-1.16.944-2.104 2.104-2.104z"/>
    <path fill="#012C57" d="M17.18 34.83a4.633 4.633 0 0 0 4.448-3.366h18.626V28.94H21.628a4.634 4.634 0 0 0-4.449-3.366 4.633 4.633 0 0 0-4.45 3.366H9.536v2.525h3.195a4.633 4.633 0 0 0 4.45 3.367zm0-6.732c1.16 0 2.103.944 2.103 2.104 0 1.16-.944 2.104-2.104 2.104a2.106 2.106 0 0 1-2.104-2.104c0-1.16.944-2.104 2.104-2.104zM32.469 42.826a4.634 4.634 0 0 0 4.45-3.366h3.336v-2.525h-3.337a4.634 4.634 0 0 0-4.45-3.367 4.633 4.633 0 0 0-4.448 3.367H9.535v2.525h18.484a4.633 4.633 0 0 0 4.45 3.366zm0-6.733c1.16 0 2.104.944 2.104 2.104 0 1.16-.944 2.104-2.104 2.104a2.107 2.107 0 0 1-2.104-2.104c0-1.16.944-2.104 2.104-2.104z"/>
</svg>
