<svg xmlns="http://www.w3.org/2000/svg" width="39" height="47" fill="none" viewBox="0 0 39 47">
    <path fill="#1EA4D9" d="M35.203 0H6.753l-.035.002a.95.95 0 0 0-.049.002l-.032.004a.934.934 0 0 0-.558.264L.28 6.038l-.002.002v.001a.95.95 0 0 0-.057.062l-.015.018a.892.892 0 0 0-.038.05l-.013.02a.94.94 0 0 0-.041.07l-.002.001a.934.934 0 0 0-.036.076l-.008.02a.916.916 0 0 0-.021.06l-.007.022a.936.936 0 0 0-.033.163l-.002.023A.915.915 0 0 0 0 6.692L0 6.705v36.959A3.338 3.338 0 0 0 3.333 47h31.87a3.338 3.338 0 0 0 3.333-3.336V3.336A3.339 3.339 0 0 0 35.203 0zM27.03 1.873h5.125v6.884l-1.942-1.692a.937.937 0 0 0-1.23-.001l-1.953 1.697V1.873zM5.803 3.198v1.11c0 .806-.655 1.46-1.46 1.46H3.21l2.592-2.57zm30.86 40.466c0 .807-.655 1.463-1.46 1.463H3.333c-.805 0-1.46-.656-1.46-1.463V7.642h2.47A3.337 3.337 0 0 0 7.676 4.31V1.873h17.481v8.943a.937.937 0 0 0 1.551.707l2.89-2.51 2.88 2.51a.936.936 0 0 0 1.552-.707V1.873h1.173c.805 0 1.46.657 1.46 1.463v40.328z"/>
    <path fill="#012C57" d="M14.86 20.922l-.52 4.205a.937.937 0 0 0 1.326.964l3.839-1.795 3.839 1.795A.934.934 0 0 0 24.29 26c.276-.2.42-.535.379-.873l-.523-4.205 2.892-3.094a.937.937 0 0 0-.506-1.56l-4.159-.804-2.05-3.709a.936.936 0 0 0-1.639 0l-2.05 3.71-4.16.804a.937.937 0 0 0-.507 1.559l2.892 3.094zm2.562-3.702a.936.936 0 0 0 .642-.466l1.44-2.609 1.442 2.609c.135.243.37.413.642.466l2.926.566-2.035 2.177a.937.937 0 0 0-.245.755l.368 2.958-2.7-1.262a.937.937 0 0 0-.794 0l-2.701 1.262.366-2.959a.936.936 0 0 0-.245-.754l-2.035-2.177 2.929-.566zM8.388 32.277h21.977a.937.937 0 0 0 0-1.874H8.388a.937.937 0 0 0 0 1.874zM30.369 36.21l-21.98.002a.937.937 0 1 0 0 1.873l21.98-.002a.936.936 0 1 0 0-1.873z"/>
</svg>
