<svg xmlns="http://www.w3.org/2000/svg" width="48" height="47" fill="none" viewBox="0 0 48 47">
    <path fill="#1EA4D9" d="M6.002 39.668c-1.281 0-2.634-.427-3.702-1.281-2.633-2.065-3.06-5.838-.996-8.471l10.749-13.454c.142-.143.285-.214.498-.285.214 0 .356 0 .498.142l8.258 6.62c.285.214.356.712.142.997L10.7 37.461c-1.139 1.424-2.918 2.207-4.698 2.207zm-2.847-2.42c1.993 1.566 4.84 1.281 6.406-.712L19.812 23.65l-7.19-5.695-10.18 12.885c-1.565 1.993-1.28 4.84.713 6.407l-.427.57.427-.57z"/>
    <path fill="#1EA4D9" d="M19.527 23.153c-.142 0-.284-.071-.427-.142l-5.623-4.485c-.143-.142-.214-.285-.285-.498 0-.214 0-.356.142-.499l2.777-3.416c.213-.285.711-.356.996-.143l5.624 4.485c.142.142.213.285.285.498 0 .214 0 .356-.143.498l-2.776 3.417c-.142.214-.356.285-.57.285zm-4.555-5.268l4.484 3.56 1.851-2.35-4.485-3.559-1.85 2.35z"/>
    <path fill="#1EA4D9" d="M20.81 18.526c-.143 0-.285-.071-.428-.142l-2.705-2.136c-.284-.214-.356-.712-.142-.997l7.26-9.111.286-1.638c.07-.213.213-.427.427-.498.213-.071.498-.071.712.143l4.057 3.203c.214.142.285.427.285.64 0 .214-.214.428-.427.57l-1.566.712-7.19 9.04c-.142.143-.285.214-.498.285 0-.071-.072-.071-.072-.071zM19.1 15.607l1.566 1.282 6.905-8.685c.071-.071.142-.142.285-.213l.64-.285-2.206-1.78-.143.64c0 .143-.07.214-.142.286l-6.905 8.755z"/>
    <path fill="#1EA4D9" d="M29.85 8.56c-.143 0-.286-.071-.428-.142l-4.058-3.204c-.142-.142-.284-.356-.284-.57 0-.213.07-.426.213-.569L29.92.16a.748.748 0 0 1 .926 0l2.278 1.851a.68.68 0 0 1 .213.854l-2.776 5.34a.535.535 0 0 1-.498.355h-.214zm-2.92-3.915l2.706 2.135 2.135-4.057-1.352-1.068-3.488 2.99z"/>
    <g>
        <path fill="#1EA4D9" d="M10.416 37.319c-.142 0-.285-.071-.427-.143l-8.258-6.549c-.284-.213-.355-.711-.142-.996.214-.285.712-.356.997-.143l8.257 6.62c.285.214.356.713.143.997a.808.808 0 0 1-.57.214z"/>
    </g>
    <g>
        <path fill="#1EA4D9" d="M6.288 34.044c-.143 0-.285-.07-.428-.142-.284-.213-.356-.712-.142-.997l10.464-13.098c.214-.284.712-.356.997-.142.285.214.356.712.142.997L6.857 33.76c-.142.213-.356.284-.57.284z"/>
    </g>
    <g>
        <path fill="#012C57" d="M34.76 47h-2.847c-.356 0-.64-.285-.712-.64l-.284-2.42c-1.21-.286-2.35-.713-3.346-1.425l-1.922 1.495c-.285.214-.712.214-.925-.07l-1.994-1.994c-.284-.285-.284-.64-.07-.926l1.494-1.922c-.64-1.067-1.139-2.135-1.424-3.345l-2.42-.285c-.356-.071-.64-.356-.64-.712V31.91c0-.356.284-.64.64-.712l2.42-.285c.285-1.21.712-2.349 1.424-3.346l-1.495-1.922c-.213-.284-.213-.711.071-.925l1.994-1.993c.284-.285.64-.285.925-.071l1.922 1.495c1.068-.641 2.136-1.14 3.346-1.424l.284-2.42c.072-.356.356-.641.712-.641h2.848c.356 0 .64.285.711.64l.285 2.42c1.21.286 2.35.713 3.346 1.425l1.922-1.495c.285-.214.712-.214.925.07l1.994 1.994c.284.285.284.64.07.925l-1.494 1.922c.64 1.068 1.139 2.136 1.424 3.346l2.42.285c.356.071.64.356.64.712v2.847c0 .356-.284.64-.64.712l-2.42.285c-.285 1.21-.712 2.349-1.424 3.345l1.495 1.922c.213.285.213.712-.071.926l-1.922 2.064c-.285.285-.641.285-.926.071l-1.922-1.494c-1.068.64-2.135 1.139-3.346 1.423l-.284 2.42c-.143.285-.427.57-.783.57zm-2.277-1.424h1.566l.285-2.349c.07-.285.284-.57.569-.64 1.353-.214 2.634-.784 3.773-1.567.285-.213.57-.142.854 0l1.85 1.424 1.14-1.139-1.424-1.85c-.213-.214-.213-.57 0-.855.783-1.139 1.281-2.42 1.566-3.773.071-.284.285-.57.64-.57l2.35-.284v-1.566l-2.35-.285c-.284-.07-.569-.284-.64-.57-.213-1.352-.783-2.633-1.566-3.772a.908.908 0 0 1 0-.854l1.424-1.851-1.14-1.139-1.85 1.424c-.213.213-.57.213-.854 0-1.14-.783-2.42-1.282-3.773-1.566-.285-.072-.57-.285-.57-.641l-.284-2.35h-1.566l-.285 2.35c-.071.285-.285.57-.57.64-1.352.214-2.633.784-3.772 1.567-.285.213-.57.142-.855 0l-1.85-1.424-1.14 1.139 1.424 1.85c.214.214.214.57 0 .855-.783 1.139-1.28 2.42-1.566 3.773-.07.285-.284.57-.64.57l-2.35.284v1.566l2.35.285c.284.071.57.285.64.57.214 1.352.783 2.633 1.566 3.772a.908.908 0 0 1 0 .854l-1.423 1.851 1.139 1.14L27 41.02c.214-.213.57-.213.855 0 1.139.783 2.42 1.282 3.773 1.567.284.07.57.284.57.64l.284 2.35z"/>
        <path fill="#012C57" d="M33.337 39.953c-3.702 0-6.62-2.99-6.62-6.692 0-3.701 2.99-6.691 6.62-6.691 3.702 0 6.62 2.99 6.62 6.691 0 3.702-2.99 6.692-6.62 6.692zm0-11.96c-2.919 0-5.197 2.35-5.197 5.268 0 2.919 2.35 5.268 5.197 5.268 2.919 0 5.196-2.349 5.196-5.268 0-2.918-2.349-5.267-5.196-5.267z"/>
    </g>
</svg>
