<svg xmlns="http://www.w3.org/2000/svg" width="41" height="47" fill="none" viewBox="0 0 41 47">
    <path fill="#1EA4D9" d="M31.056 24.932a12.88 12.88 0 0 0 .168-1.967c0-.859-.119-1.67-.17-1.987a12.93 12.93 0 0 0 .17-1.987c0-.914-.135-1.78-.18-2.046-.047-3.04-5.588-4.68-10.804-4.68-5.232 0-10.791 1.65-10.804 4.708a12.91 12.91 0 0 0-.176 2.012c0 .859.119 1.67.171 1.987a12.923 12.923 0 0 0-.171 1.987c0 .85.117 1.656.17 1.979-.053.315-.159 1.05-.17 1.839C4.08 27.222 0 31.574 0 36.867 0 42.453 4.546 47 10.134 47c3.91 0 7.304-2.23 8.993-5.481.377.015.75.026 1.113.026.18 0 .356 0 .533-.004.196-.005.391-.01.582-.022.085-.001.166-.006.257-.01a.63.63 0 0 0 .054-.002l.556-.039c.143-.01.279-.021.452-.038 4.937-.464 8.189-2.195 8.357-4.424.015-.082.194-1.073.194-2.122 0-.839-.116-1.663-.173-2.003.141-.884.173-1.571.173-1.994 0-.594-.06-1.272-.172-1.987.111-.702.172-1.389.172-1.989 0-.856-.118-1.67-.169-1.98zm-10.83 11.076a10.06 10.06 0 0 0-.51-2.412c.175.003.346.009.525.009 3.718 0 7.087-.764 9.033-2.045a.573.573 0 0 0 .055-.033l.01-.007c.113-.076.21-.153.31-.23-.017.36-.058.827-.154 1.414a.804.804 0 0 0-.019.167l.002.012c-.019.56-.645 1.06-1.018 1.308a.581.581 0 0 0-.041.029c-1.02.671-2.627 1.208-4.48 1.506l-2.567.259c-.377.018-.763.023-1.147.023zM20.24 21.7c3.634 0 7.425-.796 9.407-2.307a12.069 12.069 0 0 1-.16 1.44c0 .01 0 .019-.002.028l-.005.055c-.001.02-.005.038-.005.058-.008.415-.368.88-1.017 1.311-1.67 1.122-4.819 1.818-8.217 1.818-2.234 0-4.404-.303-6.112-.854a3.632 3.632 0 0 1-.452-.184l-1.372-.66a3.07 3.07 0 0 1-.73-.464c-.363-.327-.551-.646-.565-.95v-.02c0-.029-.005-.057-.008-.085-.002-.02-.001-.039-.005-.059a11.98 11.98 0 0 1-.159-1.431c1.983 1.51 5.771 2.304 9.402 2.304zm-8.211 4.56l-.008-.005c-.446-.3-.972-.767-1.013-1.307l-.001-.019v-.009c0-.016-.004-.03-.005-.046-.002-.024-.002-.048-.006-.072l-.003-.016-.007-.035c-.029-.168-.12-.746-.15-1.398.229.165.487.32.788.465l1.372.66c.228.11.441.195.652.263 1.885.609 4.165.93 6.592.93 3.749 0 7.147-.78 9.088-2.082.117-.078.217-.157.32-.236-.03.644-.12 1.212-.15 1.392l-.01.062v.003a.747.747 0 0 0-.012.114v.017c-.006.411-.369.879-1.021 1.316-.11.074-.228.146-.352.217l-2.109.854c-1.666.486-3.655.743-5.753.743-3.39 0-6.537-.694-8.212-1.811zm8.212 3.378c2.262 0 4.417-.283 6.233-.818a.92.92 0 0 0 .073-.026l2.192-.887a.762.762 0 0 0 .087-.043 7.266 7.266 0 0 0 .535-.33c.104-.07.195-.142.287-.213-.016.36-.057.826-.152 1.411v.001a.795.795 0 0 0-.018.166v.01c-.009.405-.353.859-.972 1.283a.867.867 0 0 0-.052.032c-1.665 1.119-4.811 1.813-8.213 1.813-.425 0-.828-.013-1.218-.032A10.19 10.19 0 0 0 17 29.436c1.029.132 2.119.203 3.24.203zm0-15.807c5.707 0 9.217 1.825 9.236 3.14l-.001.029c-.03 1.314-3.537 3.133-9.236 3.133-5.68 0-9.179-1.806-9.233-3.12v-.058c.046-1.314 3.548-3.124 9.233-3.124zM10.133 45.434c-4.724 0-8.567-3.843-8.567-8.567 0-4.723 3.843-8.567 8.567-8.567s8.568 3.844 8.568 8.567c0 4.724-3.843 8.567-8.568 8.567zm12.36-5.56c-.123.012-.242.023-.377.032l-.54.038c-.014 0-.041 0-.055.002-.084.004-.165.003-.25.01-.175.011-.353.015-.536.02-.16.004-.316.004-.476.004-.158 0-.322-.012-.48-.015.245-.76.394-1.56.452-2.387h.008c.407 0 .808-.01 1.245-.03l2.655-.27c2.143-.342 3.92-.947 5.126-1.74.02-.012.046-.03.072-.05.114-.076.211-.154.311-.23-.034.78-.158 1.463-.16 1.47-.006.035-.007.069-.008.103 0 .006-.003.013-.003.02-.033 1.167-2.643 2.615-6.984 3.024z"/>
    <path fill="#012C57" d="M10.217 35.932h-.082c-.454 0-.782-.15-.977-.447-.217-.332-.25-.7-.092-1.065.14-.33.445-.573.817-.65.082-.019.163-.019.24-.019.51 0 .96.324 1.122.805.1.307.397.52.722.52a.79.79 0 0 0 .64-.325c.123-.177.31-.446.236-.67-.28-.83-1.136-1.487-1.643-1.726l-.035-.016v-.889c0-.406-.576-.768-1.03-.768-.454 0-1.031.362-1.031.768v.89l-.035.016c-.552.243-1.28.836-1.577 1.565-.332.823-.199 1.774.376 2.677.415.655 1.227 1.046 2.174 1.046h.093c.371 0 .726.18.948.483.215.294.276.673.166 1.035-.127.386-.453.69-.837.776-.076.02-.16.029-.272.029-.505 0-.953-.322-1.115-.799a.756.756 0 0 0-.728-.51c-.25 0-.486.12-.633.324-.15.209-.304.45-.232.667.247.766 1.022 1.44 1.638 1.741l.034.017v.871c0 .41.576.774 1.03.774.454 0 1.03-.364 1.03-.774v-.872l.036-.016c.542-.244 1.264-.828 1.567-1.534.33-.783.224-1.792-.286-2.7-.42-.732-1.33-1.224-2.264-1.224zM.904 19.338a.783.783 0 1 0 0 1.567H6.32a.783.783 0 1 0 0-1.567H.904zM39.58 19.338h-5.417a.783.783 0 1 0 0 1.567h5.417a.783.783 0 1 0 0-1.567zM10.398 11.06a.783.783 0 0 0 .554-1.337l-3.83-3.83a.783.783 0 1 0-1.107 1.109l3.83 3.83c.152.152.352.228.553.228zM19.459.783V6.2a.783.783 0 1 0 1.567 0V.783a.783.783 0 1 0-1.567 0zM29.532 9.723a.783.783 0 1 0 1.108 1.108L34.47 7a.783.783 0 1 0-1.108-1.108l-3.83 3.83z"/>
</svg>
