<svg xmlns="http://www.w3.org/2000/svg" width="48" height="48" fill="none" viewBox="0 0 48 48">
    <path fill="#1EA4D9" d="M44.244 48H3.756A3.76 3.76 0 0 1 0 44.244V6.758A3.762 3.762 0 0 1 3.757 3h40.486A3.762 3.762 0 0 1 48 6.758v37.486A3.76 3.76 0 0 1 44.244 48zM3.758 6A.76.76 0 0 0 3 6.758v37.486c0 .417.339.756.756.756h40.488a.757.757 0 0 0 .756-.756V6.758A.76.76 0 0 0 44.242 6H3.758zM46.5 15h-45a1.5 1.5 0 0 1 0-3h45a1.5 1.5 0 1 1 0 3zM9 9a1.5 1.5 0 0 1-1.5-1.5v-6a1.5 1.5 0 0 1 3 0v6A1.5 1.5 0 0 1 9 9zm30 0a1.5 1.5 0 0 1-1.5-1.5v-6a1.5 1.5 0 1 1 3 0v6A1.5 1.5 0 0 1 39 9z"/>
    <path fill="#012C57" d="M9 28.5a1.5 1.5 0 1 0 0-3 1.5 1.5 0 0 0 0 3zM9 34.5a1.5 1.5 0 1 0 0-3 1.5 1.5 0 0 0 0 3zM9 40.5a1.5 1.5 0 1 0 0-3 1.5 1.5 0 0 0 0 3zM33 22.5a1.5 1.5 0 1 0 0-3 1.5 1.5 0 0 0 0 3zM33 28.5a1.5 1.5 0 1 0 0-3 1.5 1.5 0 0 0 0 3zM33 34.5a1.5 1.5 0 1 0 0-3 1.5 1.5 0 0 0 0 3zM33 40.5a1.5 1.5 0 1 0 0-3 1.5 1.5 0 0 0 0 3zM39 22.5a1.5 1.5 0 1 0 0-3 1.5 1.5 0 0 0 0 3zM39 28.5a1.5 1.5 0 1 0 0-3 1.5 1.5 0 0 0 0 3zM39 34.5a1.5 1.5 0 1 0 0-3 1.5 1.5 0 0 0 0 3zM21 22.5a1.5 1.5 0 1 0 0-3 1.5 1.5 0 0 0 0 3zM21 28.5a1.5 1.5 0 1 0 0-3 1.5 1.5 0 0 0 0 3zM21 34.5a1.5 1.5 0 1 0 0-3 1.5 1.5 0 0 0 0 3zM21 40.5a1.5 1.5 0 1 0 0-3 1.5 1.5 0 0 0 0 3zM15 22.5a1.5 1.5 0 1 0 0-3 1.5 1.5 0 0 0 0 3zM15 28.5a1.5 1.5 0 1 0 0-3 1.5 1.5 0 0 0 0 3zM15 34.5a1.5 1.5 0 1 0 0-3 1.5 1.5 0 0 0 0 3zM15 40.5a1.5 1.5 0 1 0 0-3 1.5 1.5 0 0 0 0 3zM27 22.5a1.5 1.5 0 1 0 0-3 1.5 1.5 0 0 0 0 3zM27 28.5a1.5 1.5 0 1 0 0-3 1.5 1.5 0 0 0 0 3zM27 34.5a1.5 1.5 0 1 0 0-3 1.5 1.5 0 0 0 0 3zM27 40.5a1.5 1.5 0 1 0 0-3 1.5 1.5 0 0 0 0 3z"/>
</svg>
