<svg xmlns="http://www.w3.org/2000/svg" width="47" height="47" fill="none" viewBox="0 0 47 47">
    <circle cx="23.5" cy="23.5" r="23.5" fill="#fff"/>
    <path fill="#2BAE0E" d="M13.04 25.684l9.074-8.897a.807.807 0 0 1 1.127 0l9.016 8.84a1.211 1.211 0 0 0 1.69 0c.467-.458.467-1.2 0-1.657l-11.09-10.874a.257.257 0 0 0-.359 0L11.35 24.026a1.156 1.156 0 0 0 0 1.658 1.211 1.211 0 0 0 1.69 0zM31.216 19.359c-.012.137.065.17.17.079 1.14-.981 3.36-2.033 3.7-2.3.323-.251-1.803 1.933-3.206 2.969-.111.083-.09.152.05.142 1.443-.096 4.392-1.376 4.953-4.984.021-.135-.064-.19-.191-.133-1.636.72-5.158.449-5.476 4.227z"/>
    <path fill="#2BAE0E" d="M29.753 19.444c.114.08.168.031.116-.097-.643-1.605-1.29-4.561-1.15-4.181.148.402 1.48 2.439 1.93 3.862.042.131.124.143.187.02 1.744-3.388-1.405-4.965-2.417-6.42-.078-.114-.179-.112-.233.015-1.449 3.37.386 5.978 1.567 6.801zM31.699 16.024c.01.019.068-.066.132-.188.408-.791.779-1.444.85-1.66.08-.234-.084.714-.359 1.892-.03.133-.054.24-.05.24.003-.002.116-.031.242-.093.631-.312 1.882-1.412 1.012-3.846-.045-.13-.153-.141-.25-.043-.76.767-2.614 1.525-1.594 3.664 0 0 .005.013.017.034z"/>
    <path fill="#404040" d="M25.588 35.42h2.623c1.377 0 2.492-1.093 2.492-2.442v-6.872a.68.68 0 0 0-.18-.424l-7.507-7.363a.515.515 0 0 0-.717 0c-1.418 1.387-6.6 6.457-7.522 7.363a.682.682 0 0 0-.18.424v6.872c0 1.35 1.115 2.442 2.492 2.442h2.623a.25.25 0 0 0 .254-.248v-4.81c0-1.47 1.202-2.662 2.684-2.662a2.673 2.673 0 0 1 2.683 2.662v4.81c0 .137.115.248.255.248z"/>
</svg>
