<svg xmlns="http://www.w3.org/2000/svg" width="47" height="47" fill="none" viewBox="0 0 47 47">
    <circle cx="23.5" cy="23.5" r="23.5" fill="#fff"/>
    <path fill="#2BAE0E" d="M19.998 23.147c-.502-1.97-.385-4.769 1.535-8.273-.68 1.372-1.739 5.171-.608 8.36l.01-.006v.004c4.897.76 10.078-1.795 11.868-3.148-4.522 3.716-8.52 4.646-11.491 4.458 3.36 3.422 8.682 5.782 15.278-7.093-2.528 1.662-8.637-1.438-12.68 1.304-.037-2.568-1.723-5.233-1.09-6.753-7.8 6.055-5.543 9.326-2.822 11.147z"/>
    <path fill="#404040" d="M32.591 29.345c-.266.041-.578.127-.943.28l-2.164 1.524s-5.172 3.728-9.123-.827c-.632-.725-1.23-1.659-1.773-2.853 0 0 5.23 3.779 7.962 1.268 0 0-1.104-.411-3.034-1.276-1.93-.868-3.525-2.597-5.425-3.972-1.902-1.375-5.7-1.659-7.705-.023L10 23.67s1.157.743 2.721 2.207c.006.005.01.012.018.017a28.083 28.083 0 0 1 3.308 4.089s.34.637 1.346 1.494c.607.703 1.905 1.905 4.38 2.983 3.59 1.562 6.484.19 7.95-.97 1.463-1.158 4.273-3.71 4.273-3.71s-.312-.601-1.405-.434z"/>
    <path fill="#404040" d="M29.483 30.895l2.163-1.525c.365-.152.677-.238.944-.279l.502-.454s-.147-.279-.583-.403c-.36-.104-.921-.104-1.766.249l-2.163 1.521s-4.429 3.189-8.22.064l.022.025c3.95 4.515 9.1.802 9.1.802z"/>
    <path fill="#404040" d="M28.582 29.751l2.163-1.522c.845-.352 1.405-.352 1.765-.248-.256-.229-.88-.53-2.188-.02l-2.2 1.47s-4.499 3.087-8.22-.124c.16.19.32.368.482.533-.007-.008-.015-.018-.023-.025 3.792 3.124 8.22-.064 8.22-.064z"/>
</svg>
