<svg xmlns="http://www.w3.org/2000/svg" width="47" height="47" fill="none" viewBox="0 0 47 47">
    <circle cx="23.5" cy="23.5" r="23.5" fill="#fff"/>
    <path fill="#000" d="M34.049 32.738l-1.241-.76a1.749 1.749 0 0 0-.37-.881l.311-1.426-1.122-.458-.761 1.241c-.323.04-.626.167-.88.37l-1.426-.311-.458 1.122 1.241.761c.04.323.167.626.37.88l-.311 1.426 1.122.458.761-1.241c.323-.04.626-.167.88-.37l1.426.311.458-1.122zm-3.293.23a.845.845 0 1 1 .639-1.564.845.845 0 0 1-.64 1.565zM32.45 24.45c.154-.31.245-.65.267-1.003l.005.018 1.328-.617-.314-1.17-1.454.145.005.019a2.604 2.604 0 0 0-.733-.735l.016.004.129-1.458-1.17-.314-.6 1.329a2.628 2.628 0 0 0-.502.082 2.639 2.639 0 0 0-.476.18l-.167-.117c-.346.46-.783.792-1.249 1.02l.217.301.012-.011c-.154.31-.245.649-.267 1.003l-.005-.019-1.328.617.314 1.17 1.454-.145-.005-.018c.196.295.444.543.733.735l-.016-.005-.13 1.459 1.171.313.6-1.328c.166-.011.334-.037.502-.081a2.64 2.64 0 0 0 .475-.18l1.195.838.857-.857-.853-1.186-.011.01zm-2.015.06a1.267 1.267 0 1 1-.657-2.447 1.267 1.267 0 0 1 .657 2.447z"/>
    <path fill="#2BAE0E" d="M13 13.583c1.386 2.724-.16 5.129 1.57 10.09 1.167 3.35 5.443 2.796 5.759 1.829.203-.356.38-.83.18-1.547a19.47 19.47 0 0 0-3.832-7.27c4.026 3.7 4.99 7.696 5.148 8.339.003 0 .174.668.169.644.96 4.61-.012 8.136-.155 8.578-.192.597.67.948 1.09.254.518-1.077-.368-7.868-.406-8.808-.004-.094-.068-.502-.077-.671-.047-.015 1.222-.355 1.602-1.377.612-1.646-1.27-7.658-11.048-10.06z"/>
    <path fill="#000" d="M21.126 33.14l.224-.157c.259-1.368.551-3.988-.108-7.158l-.004-.02c-.016-.05-.028-.097-.038-.135l-.032-.123c-.044.103-.09.197-.137.281-.115.28-.327.502-.596.675l.676.967a3.526 3.526 0 0 0-.402.968l-1.424.237v1.211l1.423.252c.086.347.222.671.402.969l-.84 1.175.856.857z"/>
    <path fill="#2BAE0E" d="M29.381 12c-4.397 1.33-6.496 3.566-7.33 5.348a11.37 11.37 0 0 1 1.67 2.04c.41-1.232 1.277-3.124 3.093-4.98-1.223 1.62-2.11 4.42-2.496 6.087.094.208.18.414.252.618.582.597 3.373.66 4.053-1.68 1.073-3.692-.15-5.39.758-7.433z"/>
    <path fill="#000" d="M27.14 27.482l.841-1.199-.857-.856-1.182.85a3.46 3.46 0 0 0-.962-.4l-.252-1.435h-.231c-.265.393-.647.728-1.144 1l-.052.321c.018.251.069.747.126 1.31l.066.653a1.69 1.69 0 1 1 .283 3.215c.1 1.436.118 2.499.026 3.197h.926l.255-1.436c.342-.086.665-.223.959-.402l1.196.84.856-.858-.853-1.185c.177-.295.311-.616.395-.958l1.442-.252v-1.212l-1.442-.236a3.473 3.473 0 0 0-.396-.957z"/>
</svg>
