<svg xmlns="http://www.w3.org/2000/svg" width="121" height="121" fill="none" viewBox="0 0 121 121">
    <circle cx="60.5" cy="60.5" r="59.5" stroke="#2BAE0E" stroke-width="2"/>
    <path fill="#2BAE0E" d="M83.823 52.82L81.56 44.9a1.484 1.484 0 0 0-1.834-1.019l-.003.001c-.668-1.91-2.22-5.735-4.69-8.387l-1.448 1.348c2.16 2.319 3.59 5.79 4.23 7.584l-1.97.564a1.484 1.484 0 0 0-1.02 1.833l2.265 7.922a1.484 1.484 0 0 0 1.834 1.018l.303-.087v12.209a2.59 2.59 0 0 1-2.587 2.587 2.591 2.591 0 0 1-2.588-2.587V51.088c0-2.8-2.172-5.097-4.919-5.31V39.45A4.449 4.449 0 0 0 64.684 35H45.652a4.449 4.449 0 0 0-4.45 4.45v39.465H37V86h36.335v-7.085h-4.202V48.766a2.364 2.364 0 0 1 1.953 2.322v16.798a5.56 5.56 0 0 0 5.553 5.553 5.56 5.56 0 0 0 5.554-5.553V54.829l.612-.175a1.484 1.484 0 0 0 1.018-1.833zM65.18 53.91H45.157V40.574h20.022v13.335z"/>
</svg>
