<svg xmlns="http://www.w3.org/2000/svg" width="121" height="121" fill="none" viewBox="0 0 121 121">
    <circle cx="60.5" cy="60.5" r="59.5" stroke="#2BAE0E" stroke-width="2"/>
    <g fill="#2BAE0E">
        <path d="M74.664 59.642l7.46-6.801-.699-4.772-6.034 6.62-.727 4.953zM82.498 55.371l-8.587 9.418-.68 4.637 9.992-9.11-.725-4.945zM83.571 62.671l-11.14 12.217-.431 2.95.566.671 11.756-10.717-.75-5.12zM74.629 80.952l2.616 3.096.947 1.118.702.834.707-.833.946-1.118 5.247-6.21-1.153-7.866-10.012 10.98zM75.947 43.846l.919.804-.764 5.21 4.929-4.496-.106-.715.915-.804c3.643-3.191 4.045-4.739 4.08-5.12.008-.065.003-.098.003-.1-.066-.338-.316-.685-.686-1.021-.441-.404-1.066-.791-1.795-1.124-1.352-.62-3.043-1.05-4.55-1.05-1.476 0-3.137.418-4.476 1.019-.73.327-1.363.71-1.819 1.11-.398.35-.665.714-.734 1.067v.052c.011.28.262 1.822 4.084 5.168z"/>
        <g>
            <path d="M83.94 50.664l.68 4.644c.37-.351.658-.793.815-1.305a3.043 3.043 0 0 0-1.202-3.408l-.339-.23.045.302.001-.003zM69.776 78.47l.662-4.525.002-.002.733-5.002h-3.887V53.11h4.889v9.008l1.227-8.373.002-.002 1.212-8.264-.054-.048c-1.618-1.417-2.823-2.699-3.625-3.845l-8.948-6.06a3.036 3.036 0 0 0-3.41 0l-11.121 7.533-11.123 7.534a3.038 3.038 0 1 0 1.703 5.554h2.757v9.783a3.042 3.042 0 0 0-2.61 2.82h-.147A3.038 3.038 0 0 0 35 71.79v5.762a3.04 3.04 0 0 0 3.038 3.04h33.53l-1.792-2.12zM53.28 68.943H48.39V53.11h4.89v15.832zm9.448 0h-4.889V53.11H62.727v15.832z"/>
        </g>
    </g>
</svg>
