<svg xmlns="http://www.w3.org/2000/svg" width="121" height="121" fill="none" viewBox="0 0 121 121">
    <circle cx="60.5" cy="60.5" r="59.5" stroke="#2BAE0E" stroke-width="2"/>
    <g fill="#2BAE0E">
        <path d="M46.395 63.558A72.31 72.31 0 0 0 36 73.97l13.868-6.94-3.473-3.472zM82.556 49.049a6.022 6.022 0 0 0-8.037-.429c-1.8.481-6.583 4.007-8.13 4.363.37-1.599 4.12-6.655 4.393-8.295a6.02 6.02 0 0 0-9.027-7.924 6.022 6.022 0 0 0 0 8.515 5.994 5.994 0 0 0 3.405 1.695l-2.469 3.61.838.837 1.294 1.293 1.147 1.148 1.71 1.71 1.11 1.109 3.567-2.44a5.979 5.979 0 0 0 1.684 3.323 6.022 6.022 0 0 0 8.515-8.515zM65.794 43.44a2.742 2.742 0 1 1 0-5.485 2.742 2.742 0 0 1 0 5.485zm12.342 12.647a2.743 2.743 0 1 1 0-5.485 2.743 2.743 0 0 1 0 5.485zM45.402 83.37a72.09 72.09 0 0 0 10.414-10.393l-3.475-3.474-6.939 13.868zM60.773 66.02l-1.77-1.77 7.385-7.385-1.71-1.71-6.166 6.164a1.72 1.72 0 0 1-1.22.506 1.726 1.726 0 0 1-1.22-2.946l6.165-6.165-.596-.595-.77-.772-6.166 6.165a1.72 1.72 0 0 1-1.22.505 1.725 1.725 0 0 1-1.221-2.945l6.167-6.165-1.368-1.367-6.165 6.165c-.337.337-.779.505-1.22.505a1.726 1.726 0 0 1-1.219-2.945l6.165-6.165-1.368-1.367-6.165 6.166a1.719 1.719 0 0 1-1.22.505 1.726 1.726 0 0 1-1.22-2.946l6.165-6.165-1.836-1.835-9.717 9.717a3.299 3.299 0 0 0 0 4.664l8.576 8.576 3.753 3.753 1.613 1.612 3.754 3.755 13.5 13.499A3.288 3.288 0 0 0 72.79 86a3.298 3.298 0 0 0 2.332-5.63l-14.35-14.35z"/>
    </g>
</svg>
