<svg xmlns="http://www.w3.org/2000/svg" width="121" height="121" fill="none" viewBox="0 0 121 121">
    <circle cx="60.5" cy="60.5" r="59.5" stroke="#2BAE0E" stroke-width="2"/>
    <g fill="#2BAE0E" fill-rule="evenodd" clip-rule="evenodd">
        <path d="M86.03 44.235l-2.418.003v41.015a.747.747 0 0 1-.748.747H70.576c.038-.148.064-.301.064-.46V64.379l1.276-.002a1.144 1.144 0 0 0 .7-2.05l-8.15-6.318V44.24l-2.42-.004L74.119 35l11.913 9.235zm-9.417 1.321h-2.28v2.279h2.28v-2.279zm-2.87 0h-2.278v2.279h2.278v-2.279zm0 2.978h-2.279v2.279h2.28v-2.279zm2.87 0h-2.28v2.279h2.28v-2.279z"/>
        <path d="M71.914 62.946l-2.42.003v22.305a.747.747 0 0 1-.745.746H57.502c.128-.255.207-.538.207-.841v-6.812l1.275-.002a1.143 1.143 0 0 0 .7-2.05l-9.335-7.237v-6.109l-2.42-.003 12.072-9.235 11.913 9.235zm-9.418.272h-2.279v2.28h2.279v-2.28zm-2.87 0h-2.278v2.28h2.279v-2.28zm0 2.978h-2.278v2.28h2.279v-2.28zm2.87 0h-2.279v2.28h2.279v-2.28z"/>
        <path d="M56.562 77.298l.002.023v7.933a.747.747 0 0 1-.747.746h-17.65a.747.747 0 0 1-.748-.746v-7.933l.002-.023L35 77.295l12.07-9.235 11.914 9.235-2.422.003zm-6.996-.459h-2.28v2.28h2.28v-2.28zm-2.87 0h-2.278v2.28h2.278v-2.28zm0 2.979h-2.279v2.278h2.279v-2.278zm2.87 0h-2.28v2.278h2.28v-2.278z"/>
    </g>
</svg>
