<svg xmlns="http://www.w3.org/2000/svg" width="121" height="121" fill="none" viewBox="0 0 121 121">
    <circle cx="60.5" cy="60.5" r="59.5" stroke="#2BAE0E" stroke-width="2"/>
    <path stroke="#2BAE0E" stroke-linecap="round" stroke-linejoin="round" d="M39.969 84.386V55.414l6.69-4.56 5.55 2.596v30.936"/>
    <path stroke="#2BAE0E" stroke-linecap="round" stroke-linejoin="round" d="M52.207 53.45v-9.12L63.878 35l5.551 5.542V58.15l5.765-3.648 4.839 2.455v27.43M61.957 36.544v47.843M46.656 50.854v33.532M69.43 58.15v26.237M75.191 54.502v29.884M31 84.387h58V86H31v-1.613z"/>
    <path stroke="#2BAE0E" d="M36.834 77.512c.356 1.403-.214 3.578-1.78 3.578-1.494 0-2.063-2.175-1.707-3.578-2.491-6.033 5.978-6.033 3.487 0zM35.059 81.09l.07 3.297M86.653 77.512c.427 1.403-.143 3.578-1.708 3.578-1.566 0-2.135-2.175-1.78-3.578-2.419-6.033 5.979-6.033 3.488 0zM84.941 81.09v3.297"/>
    <path fill="#2BAE0E" fill-rule="evenodd" d="M52.207 53.45v30.937h9.75V36.544l-9.75 7.786v9.12zM36.834 77.512c2.49-6.033-5.978-6.033-3.487 0-.356 1.403.213 3.578 1.708 3.578 1.565 0 2.135-2.175 1.779-3.578zM39.967 84.387H31V86h58v-1.613H39.967zM86.653 77.512c2.49-6.033-5.907-6.033-3.487 0-.356 1.403.213 3.578 1.779 3.578 1.565 0 2.135-2.175 1.708-3.578zM46.658 84.386V50.854l-6.69 4.56v28.972h6.69zM69.43 58.15v26.236h5.764V54.502L69.43 58.15z" clip-rule="evenodd"/>
</svg>
