<svg xmlns="http://www.w3.org/2000/svg" width="121" height="121" fill="none" viewBox="0 0 121 121">
    <circle cx="60.5" cy="60.5" r="59.5" stroke="#2BAE0E" stroke-width="2"/>
    <g fill="#2BAE0E">
        <path d="M39.253 71.4c.06.052.125.092.182.15l10.013 10.014c.056.055.095.12.147.178l1.614 1.613c1.13 1.13 2.89 1.213 3.92.182 1.03-1.031.95-2.79-.181-3.92L41.38 66.05c-.6-.6-1.377-.904-2.127-.904-.664 0-1.31.24-1.793.723-1.031 1.03-.949 2.789.182 3.92l1.61 1.61zM45.602 85.412c.728.728 1.853.789 2.507.134.654-.654.593-1.778-.135-2.507L37.96 73.025a1.963 1.963 0 0 0-1.377-.587c-.42 0-.826.15-1.13.453-.307.308-.469.73-.453 1.19.017.487.225.955.587 1.317l10.014 10.014zM73.262 67.684L52.434 46.856l-5.576 5.575L67.686 73.26l5.576-5.576zM55.13 37.463a2.51 2.51 0 0 0-1.793-.722c-.752 0-1.528.305-2.128.904l-1.612 1.613c-.052.058-.093.123-.149.18L39.435 49.451c-.058.058-.125.1-.186.154l-1.606 1.607c-1.13 1.13-1.213 2.89-.183 3.92 1.032 1.031 2.791.948 3.92-.182l13.567-13.567c1.132-1.13 1.213-2.889.183-3.92zM59.024 67.552l-5.575-5.575-6.592 6.591 5.576 5.576 6.591-6.592zM82.653 56.016c1.03-1.03.949-2.789-.182-3.92l-1.605-1.605c-.061-.054-.13-.097-.188-.156L70.665 40.322c-.057-.057-.097-.123-.15-.182l-1.61-1.61c-.6-.6-1.377-.904-2.128-.904-.664 0-1.309.239-1.792.722-1.031 1.03-.95 2.79.18 3.92l13.568 13.567c1.13 1.13 2.89 1.212 3.92.181zM73.26 53.315l-5.576-5.575-5.708 5.708 5.575 5.575 5.708-5.708zM47.973 37.96c.728-.727.79-1.852.135-2.506a1.583 1.583 0 0 0-1.13-.454c-.484 0-.988.198-1.377.588L35.588 45.6c-.362.362-.571.83-.587 1.317-.016.46.146.883.453 1.19.307.308.746.47 1.19.452a1.958 1.958 0 0 0 1.317-.587L47.973 37.96zM72.142 82.155c-.727.729-.788 1.853-.133 2.507.654.655 1.779.594 2.507-.134l10.013-10.013c.362-.362.57-.83.587-1.316a1.583 1.583 0 0 0-.453-1.19c-.654-.655-1.78-.594-2.507.133L72.142 82.155zM82.156 48.858c.363.362.83.57 1.317.587.444.017.882-.145 1.19-.453.308-.307.469-.73.453-1.19a1.96 1.96 0 0 0-.587-1.316L74.515 36.472c-.727-.728-1.853-.788-2.507-.133-.654.654-.593 1.778.134 2.506l10.014 10.013zM64.984 82.653c1.031 1.03 2.79.949 3.92-.182l1.611-1.61c.053-.06.093-.125.15-.182l10.013-10.014c.057-.057.123-.097.183-.15l1.61-1.61c1.13-1.131 1.212-2.89.182-3.92-1.03-1.03-2.79-.95-3.92.181L65.166 78.733c-1.13 1.13-1.212 2.889-.182 3.92z"/>
    </g>
</svg>
