<svg xmlns="http://www.w3.org/2000/svg" width="26" height="37" fill="none" viewBox="0 0 26 37">
    <g fill="#2BAE0E">
        <path d="M3.224 24.64v10.697c0 .627.636 1.256 1.14 1.256h19.112c.503 0 1.14-.629 1.14-1.256V24.64L13.29 32.82 3.224 24.64zm2.62 9.327v-3.662l4.418 3.662H5.844zm15.807-3.662v3.662h-4.42l4.42-3.662z"/>
        <path d="M19.445 22.783l-5.138 3.537-.85.585-.585-.535-4.957-4.538-2.283-2.09c-1.71-1.78-1.983-3.759-1.983-6.306 0-3.003.883-5.465 2.653-7.385 1.766-1.923 4.095-2.886 6.99-2.886 2.843 0 5.064.784 6.663 2.365 1.6 1.572 2.397 3.73 2.397 6.476 0 3.172-.944 4.76-2.823 4.76-.422 0-.976-.224-1.664-.673v-3.888c0-4.037-1.857-6.055-5.569-6.055-1.543 0-2.978.474-4.306 1.426l1.067 2.462c1.195-.687 2.361-1.032 3.49-1.032.789 0 1.291.568 1.525 1.7-4.778.168-7.166 1.773-7.166 4.811 0 1.318.458 2.353 1.374 3.118.916.762 2.082 1.15 3.489 1.15 1.388 0 2.602-.396 3.637-1.19.99.696 2.376 1.045 4.158 1.045 1.952 0 3.517-.739 4.686-2.215 1.167-1.479 1.75-3.266 1.75-5.362 0-3.85-1.1-6.816-3.306-8.92C20.486 1.047 17.352 0 13.292 0 9.337 0 6.13 1.258 3.678 3.784 1.228 6.294 0 9.516 0 13.436c0 3.283.332 5.63 2.639 8.245.434.492.944.855 1.182 1.037l2.13 1.85 7.34 6.364 11.324-8.18-4.706.03-.464.001zm-5.304-6.29a2.172 2.172 0 0 1-1.5.562c-.543 0-.988-.153-1.34-.464a1.472 1.472 0 0 1-.521-1.164c0-1.504.99-2.261 2.982-2.261h.379v3.327z"/>
    </g>
</svg>
