<svg xmlns="http://www.w3.org/2000/svg" width="31" height="38" fill="none" viewBox="0 0 31 38">
    <g fill="#2BAE0E">
        <path d="M28.794 31.476H26.23a3.444 3.444 0 0 1-1.539 1.144l-5.048 2.011c.079.908.867 1.617 1.775 1.617.946 0 1.735-.67 1.972-1.538a1.91 1.91 0 0 0 1.42.631h.04a1.911 1.911 0 0 0 1.893-1.972c.354.355.828.592 1.38.592h.04a1.911 1.911 0 0 0 1.893-1.972v-.829c-.395.237-.829.316-1.262.316zM28.791 0H16.998c-1.223 0-2.249 1.026-2.249 2.248v23.863c0 1.065.908 1.736 1.696 1.736.237 0 .434-.04.632-.118l4.812-1.933c.434-.158.907-.276 1.38-.276 1.499 0 2.88.907 3.432 2.327.236.552.315 1.144.236 1.736-.039.236-.078.433-.118.67h1.933A2.262 2.262 0 0 0 31 28.005V2.248C31 1.026 30.014 0 28.791 0zm-8.875 1.775h5.917c.237 0 .394.197.394.394a.395.395 0 0 1-.394.395h-5.917a.395.395 0 0 1 0-.79zm8.757 22.207H17.077V4.378h11.596v19.604z"/>
        <path d="M25.56 28.281c-.514-1.262-1.933-1.853-3.156-1.34l-4.812 1.932c-1.933.789-4.063-.67-4.063-2.76v-8.205c-2.919.434-9.664 7.336-9.664 7.336l-2.682.513c-.591.118-1.065.631-1.104 1.223L0 34.868c0 .671.473 1.223 1.144 1.302 1.262.118 3.313.434 4.97 1.065 1.262.473 3.352.158 3.786-.04 1.262-.512 14.318-5.719 14.318-5.719 1.223-.512 1.854-1.932 1.341-3.195z"/>
    </g>
</svg>
