<svg xmlns="http://www.w3.org/2000/svg" width="30" height="38" fill="none" viewBox="0 0 30 38">
    <g fill="#2BAE0E">
        <path fill-rule="evenodd" d="M15.004 0c11.11 0 18.308 11.826 13.457 21.76C26.114 26.804 18.29 34.372 15.004 38 11.56 34.058 4.206 27.12 1.703 21.917-3.461 12.141 3.737 0 15.003 0zm0 5.676c5.164 0 9.388 4.258 9.388 9.46 0 5.204-4.224 9.462-9.388 9.462s-9.39-4.258-9.39-9.461 4.226-9.46 9.39-9.46z" clip-rule="evenodd"/>
        <path d="M15.004 20.497c2.938 0 5.32-2.4 5.32-5.36 0-2.961-2.382-5.362-5.32-5.362s-5.32 2.4-5.32 5.361 2.382 5.361 5.32 5.361z"/>
    </g>
</svg>
